<svg width="873" height="512" viewBox="0 0 873 512" fill="none" xmlns="http://www.w3.org/2000/svg">
<path d="M627.098 471.482C610.088 471.482 593.817 470.174 579.46 467.519C571.657 466.11 564.201 463.967 557.322 461.154C551.222 458.753 544.712 456.691 538.425 454.691C533.054 452.987 527.506 451.222 522.2 449.246C508.974 444.307 495.308 442.313 476.365 442.295H474.842C469.397 442.295 465.417 442.295 460.261 443.888C440.221 449.971 419.236 454.59 397.678 457.66C354.215 463.932 315.431 457.901 288.483 440.678C255.342 419.497 243.843 396.576 244.133 382.186C244.198 379.056 244.478 375.784 244.777 372.308C246.197 355.795 247.813 337.077 225.619 327.392C219.697 324.811 213.177 322.774 206.863 320.805C196.392 317.545 185.566 314.168 177.112 308.186C155.432 292.858 152.882 266.443 171.414 249.306L172.05 248.719C182.857 238.725 195.103 227.39 212.505 222.384C213.439 222.106 214.466 221.841 215.447 221.569C217.908 220.938 220.308 220.207 222.63 219.378C230.28 216.495 242.33 209.439 245.048 203.667C247.215 199.08 247.113 193.876 247.019 188.851C246.851 179.652 246.674 170.146 259.816 163.355C267.943 159.163 277.704 156.521 287.147 153.959C300.505 150.335 313.115 146.915 321.905 139.483C326.145 135.89 328.77 131.532 331.311 127.321C334.216 122.494 337.233 117.5 342.707 113.475C359.604 101.042 382.368 92.1152 405.15 88.9792C420.787 86.8309 440.272 90.0533 457.272 93.4918C474.655 97.0044 494.841 96.6279 520.79 92.2942L521.07 93.0288L520.79 92.2942C530.925 90.6027 540.994 88.4853 550.456 86.4666C581.758 79.7686 620.326 79.676 653.626 86.2876C690.989 93.6647 718.806 108.511 732.089 128.155C733.184 129.902 734.055 131.707 734.695 133.55C735.37 135.587 736.391 137.567 737.74 139.452C747.8 152.311 767.799 160.095 784.099 165.435C812.757 174.825 831.401 184.838 835.856 205.747C837.672 213.459 838.064 221.289 837.024 229.063C835.95 237.15 829.934 244.966 825.077 250.102C823.713 251.547 822.275 252.942 820.818 254.294C818.203 256.639 815.87 259.116 813.84 261.702C810.449 266.295 805.826 270.999 800.922 275.987C790.217 286.87 779.139 298.13 779.512 309.662C779.83 319.212 786.359 328.114 792.674 336.732C796.111 341.405 799.651 346.245 802.145 351.116C803.497 353.502 805.176 355.802 807.161 357.986C807.712 358.647 808.273 359.314 808.824 359.987C815.307 368.012 814.69 378.797 813.233 388.322C811.729 398.088 806.769 407.459 799.222 414.67C796.083 417.688 792.403 420.571 788.835 423.362C786.032 425.522 783.23 427.757 780.68 430.016L779.774 430.831C775.477 434.652 771.367 438.239 765.37 441.227C756.627 445.517 748.053 449.635 739.216 452.876C736.624 453.786 733.965 454.611 731.248 455.345C729.137 455.963 726.952 456.58 724.878 457.284C714.173 460.914 703.515 463.117 693.53 465.062C671.957 469.27 649.59 471.431 627.098 471.482V471.482ZM476.897 440.783C495.953 440.783 509.87 442.925 523.331 447.931C528.571 449.882 534.091 451.635 539.425 453.327C545.758 455.339 552.306 457.426 558.499 459.858C565.205 462.602 572.476 464.692 580.085 466.062C612.386 472.038 654.569 471.13 692.923 463.648C702.806 461.716 713.342 459.537 723.869 455.969C726.008 455.24 728.231 454.605 730.408 453.993C732.995 453.246 735.676 452.481 738.17 451.567C746.857 448.376 755.366 444.283 764.044 440.023C769.817 437.19 773.777 433.671 777.981 429.942L778.915 429.127C781.511 426.831 784.388 424.578 787.163 422.398C790.693 419.639 794.336 416.781 797.438 413.824C804.742 406.805 809.581 397.699 811.028 388.18C812.448 378.883 813.074 368.351 806.881 360.715C806.339 360.042 805.788 359.388 805.237 358.733C803.191 356.457 801.462 354.062 800.072 351.579C797.624 346.8 794.112 342.004 790.731 337.38C784.304 328.626 777.654 319.57 777.345 309.687C776.953 297.692 788.218 286.228 799.119 275.153C803.976 270.215 808.572 265.541 811.897 261.035C813.97 258.376 816.346 255.825 819.006 253.405C820.416 252.071 821.864 250.688 823.209 249.275C827.879 244.281 833.773 236.694 834.81 228.903C835.838 221.241 835.452 213.526 833.661 205.926C829.346 185.678 811.141 175.93 783.155 166.756C766.538 161.312 746.138 153.367 735.779 140.113C734.365 138.14 733.29 136.07 732.575 133.939C731.965 132.179 731.137 130.455 730.099 128.785C717.106 109.573 689.756 94.9981 653.084 87.7507C620.214 81.2502 582.15 81.3119 551.269 87.9174C541.779 89.9484 531.653 92.072 521.462 93.7696C495.075 98.1712 474.497 98.5478 456.693 94.9487C439.973 91.5658 420.843 88.3865 405.711 90.4731C383.395 93.5597 361.08 102.301 344.5 114.493C339.297 118.321 336.364 123.185 333.525 127.889C330.928 132.211 328.238 136.662 323.801 140.421C314.6 148.156 301.103 151.799 288.053 155.354C278.759 157.873 269.148 160.478 261.273 164.54C249.018 170.868 249.214 179.578 249.354 188.838C249.448 193.987 249.551 199.333 247.281 204.129C244.376 210.272 231.784 217.711 223.798 220.705C221.383 221.567 218.887 222.326 216.325 222.977C215.391 223.242 214.392 223.507 213.429 223.785C196.616 228.625 184.548 239.774 173.918 249.608L173.283 250.195C155.348 266.776 157.823 292.333 178.794 307.168C186.948 312.934 197.578 316.249 207.853 319.453C214.233 321.441 220.837 323.502 226.89 326.138C250.176 336.306 248.523 355.486 247.066 372.438C246.767 375.889 246.487 379.148 246.431 382.241C246.141 396.316 257.462 418.781 290.08 439.653C316.468 456.512 354.532 462.408 397.201 456.247C418.582 453.198 439.396 448.615 459.271 442.579C464.876 440.844 469.294 440.85 474.824 440.844H476.869L476.897 440.783Z" stroke="url(#paint0_linear_67_117)" stroke-width="2" stroke-miterlimit="10"/>
<path d="M674.049 478.955C667.966 478.955 661.919 478.857 655.901 478.764L647.447 478.634C629.719 478.406 610.684 477.905 591.658 475.793C572.633 473.681 552.656 470.198 528.918 464.868C526.259 464.25 523.571 463.633 520.865 463.015C497.622 457.642 473.567 452.09 449.606 457.321C447.432 457.797 445.286 458.427 443.214 459.032C440.818 459.772 438.356 460.415 435.843 460.959C433.65 461.397 431.402 461.762 429.227 462.114C426.163 462.571 423.139 463.138 420.167 463.812C412.703 465.628 405.07 467.122 397.708 468.567C394.116 469.272 390.505 469.982 386.884 470.729C377.229 472.779 367.165 473.862 357.026 473.941C355.047 473.941 353.06 473.941 351.063 473.941C338.299 473.984 325.095 474.015 312.937 470.791L312.228 470.599C307.479 469.364 302.571 468.043 298.381 465.961C297.346 465.442 296.347 464.917 295.367 464.399C292.854 462.988 290.135 461.747 287.25 460.693C277.56 457.358 268.83 452.922 261.459 447.588C237.908 430.474 235.333 414.157 232.403 395.259C231.255 387.916 230.061 380.319 227.551 372.13C222.755 356.468 214.488 345.073 201.425 336.26C199.024 334.754 196.361 333.442 193.494 332.351C191.842 331.665 190.134 330.949 188.502 330.146C186.374 329.096 184.349 327.978 182.39 326.897C179.469 325.221 176.397 323.663 173.19 322.235C171.277 321.419 169.317 320.623 167.358 319.826C159.091 316.472 150.562 313.001 144.619 307.628C138.464 301.896 133.814 295.517 130.865 288.761C124.399 274.192 129.661 256.164 144.609 241.725C158.811 228.002 180.067 222.363 200.66 216.91C212.286 213.822 215.664 208.449 212.333 198.345C210.728 193.466 210.056 189.779 211.399 185.375C217.688 164.322 239.065 159.881 259.742 155.589C275.334 152.353 291.467 149.005 302.179 138.722C308.141 132.997 311.668 126.469 315.083 120.151C319.152 112.629 323.351 104.847 331.711 98.202C344.774 87.814 365.89 78.8033 389.637 73.4611C412.647 68.2918 442.001 75.493 465.58 81.2799C468.818 82.0766 471.935 82.8424 474.911 83.5403C495.14 88.3081 512.468 83.2623 530.803 77.9201C535.468 76.5614 540.311 75.1533 545.172 73.9243C559.257 70.3917 574.018 68.1778 589.027 67.3469C604.035 66.4473 619.161 67.0322 633.908 69.0824C658.887 72.6397 694.493 82.0518 713.64 94.2988C722.122 99.7336 727.413 106.651 732.526 113.358C738.124 120.769 744.012 128.415 754.164 133.887C766.686 140.637 781.82 144.546 796.461 148.332C817.921 153.89 840.045 159.591 854.125 174.308C857.932 178.298 859.229 182.609 860.003 187.846C860.647 192.195 860.959 196.563 860.937 200.933V200.933C860.722 224.593 848.881 241.398 829.846 260.839L828.913 261.828C810.867 280.257 792.206 299.316 798.121 321.808C799.792 328.213 803.515 334.37 806.519 339.021C809.72 343.906 814.917 349.057 820.338 354.51C830.49 364.645 840.997 375.125 840.642 385.563C839.905 407.45 815.318 431.592 794.501 445.618C783.452 453.023 770.971 459.427 757.383 464.664C742.65 470.371 727.739 474.373 713.062 476.553C700.278 478.498 687.113 478.955 674.049 478.955ZM470.012 453.714C487.498 453.714 504.77 457.704 521.621 461.595C524.318 462.212 526.996 462.83 529.655 463.448C553.271 468.753 573.099 472.205 592.041 474.311C610.983 476.417 629.849 476.911 647.494 477.133L655.957 477.263C674.703 477.566 694.092 477.881 712.595 475.132C727.975 472.728 742.703 468.77 756.263 463.398C769.679 458.228 782 451.905 792.905 444.592C813.433 430.764 837.693 407.006 838.393 385.569C838.729 375.601 828.428 365.324 818.472 355.381C812.957 349.872 807.742 344.666 804.476 339.663C801.378 334.932 797.59 328.664 795.882 322.105C789.845 299.025 808.749 279.719 827.028 261.043L827.961 260.055C846.772 240.829 858.473 224.235 858.688 200.951C858.71 196.633 858.399 192.316 857.755 188.019C857.018 182.992 855.795 178.878 852.222 175.142C838.543 160.845 817.698 155.459 795.658 149.765C780.85 145.942 765.548 141.983 752.736 135.085C742.202 129.409 736.249 121.609 730.492 114.086C725.462 107.503 720.228 100.691 712.054 95.4351C693.234 83.392 658.112 74.1219 633.442 70.6078C618.912 68.5894 604.009 68.0149 589.223 68.9033C574.424 69.7225 559.871 71.9051 545.984 75.388C541.179 76.6232 536.373 78.0004 531.727 79.353C513.783 84.584 495.234 89.9879 474.146 85.0163C471.16 84.3122 468.034 83.5403 464.815 82.7497C441.572 77.0432 412.647 69.9408 390.402 74.9433C367.075 80.1929 346.295 89.043 333.484 99.2148C325.375 105.656 321.242 113.308 317.239 120.713C313.777 127.118 310.203 133.745 304.064 139.63C292.867 150.339 276.398 153.767 260.433 157.083C239.476 161.407 219.676 165.545 213.648 185.715C212.407 189.847 213.06 193.367 214.581 198.067C217.101 205.719 217.52 214.125 201.518 218.355C181.252 223.722 160.304 229.28 146.466 242.627C131.901 256.702 126.75 274.235 133.03 288.378C135.906 294.968 140.439 301.19 146.438 306.782C152.102 311.915 160.434 315.299 168.524 318.578C170.502 319.381 172.471 320.184 174.403 321.006C177.689 322.467 180.836 324.062 183.827 325.78C185.758 326.848 187.764 327.953 189.836 328.979C191.394 329.744 193.064 330.442 194.688 331.116C197.705 332.27 200.506 333.657 203.03 335.247C216.354 344.276 224.836 355.912 229.725 371.871C232.263 380.134 233.457 387.767 234.605 395.148C237.516 413.781 240.036 429.869 263.083 446.612C270.281 451.819 278.809 456.147 288.276 459.396C291.29 460.501 294.131 461.8 296.758 463.275C297.691 463.781 298.708 464.3 299.725 464.806C303.672 466.77 308.44 468.03 313.049 469.253L313.759 469.444C325.506 472.532 338.467 472.532 351.026 472.483H357.007C366.913 472.433 376.748 471.373 386.166 469.339C389.805 468.592 393.416 467.882 397.017 467.178C404.351 465.739 411.947 464.25 419.346 462.447C422.404 461.749 425.52 461.166 428.677 460.699C430.823 460.353 433.034 459.995 435.208 459.569C437.631 459.043 440.005 458.424 442.319 457.716C444.472 457.057 446.673 456.47 448.915 455.956C455.721 454.465 462.844 453.708 470.012 453.714V453.714Z" stroke="url(#paint1_linear_67_117)" stroke-width="2" stroke-miterlimit="10"/>
<path d="M682.885 493.902C667.329 493.902 651.764 492.513 636.657 491.168L629.052 490.495C618.787 489.612 610.286 488.705 601.711 485.872C592.976 482.983 584.578 481.668 575.284 480.366C524.381 473.205 474.728 467.508 426.914 476.273C419.925 477.557 412.917 479.193 406.208 480.773C395.784 483.242 385.007 485.748 373.856 487.051C361.846 488.452 349.472 488.563 337.519 488.674C329.97 488.748 322.169 488.816 314.573 489.211C265.909 491.742 230.833 461.57 217.601 430.534C215.23 424.979 215.454 419.182 215.669 413.578L215.725 412.059C216.042 402.973 215.725 390.054 212.282 380.122C210.415 374.758 206.953 369.628 203.79 365.363C196.372 355.302 181.236 350.067 166.604 344.993C156.088 341.352 145.207 337.586 137.126 332.031C135.26 330.796 133.487 329.562 131.705 328.327C111.017 314.334 94.687 303.279 98.6062 281.15C101.135 266.866 107.798 247.287 125.145 235.114C136.594 227.09 149.546 219.337 166.642 217.041C168.595 216.812 170.574 216.692 172.558 216.683C174.631 216.682 176.698 216.537 178.726 216.251C194.188 213.627 191.314 205.547 188.272 196.986C186.844 192.998 185.473 189.227 186.004 185.949C187.609 175.456 192.611 168.795 202.726 163.58C211.992 158.808 224.833 154.709 240.892 151.413C249.486 149.648 257.502 148 264.995 144.778C272.425 141.653 279.228 137.92 285.244 133.667C294.66 126.741 297.907 118.235 301.341 109.297C302.916 104.843 304.901 100.456 307.285 96.162C313.733 85.1809 325.687 75.8478 342.81 68.416C376.487 53.8115 408.242 61.2866 441.863 69.2493L446.93 70.4468C449.132 70.9591 451.306 71.49 453.462 72.0085C470.371 76.1009 486.337 79.965 504.402 76.4404C512.801 74.7862 520.639 71.7863 528.179 68.8789C535.719 65.9716 543.688 62.9038 552.366 61.1878C575.191 56.6818 599.406 56.1818 622.828 55.7003L629.63 55.5584C676.446 54.5275 706.204 63.5149 729.094 85.6315C738.338 94.7109 746.662 104.186 754.009 113.995C758.675 120.167 767.465 123.636 775.471 126.204C785.269 129.365 795.067 131.797 804.511 134.148C821.83 138.469 838.197 142.525 854.107 150.599C856.16 151.642 858.25 152.648 860.35 153.654C864.667 155.655 868.813 157.813 872.77 160.117C887.7 169.042 893.215 183.869 888.867 202.992C884.126 223.936 869.971 241.528 865.771 246.466C863.532 249.064 860.984 251.731 857.504 255.107C854.331 258.194 850.869 261.28 847.239 264.62C835.043 275.644 821.214 288.143 817.033 300.822C813.879 310.402 818.694 320.068 823.295 326.5C829.118 334.642 837.759 343.043 848.284 350.79C851.84 353.401 855.824 356.579 858.549 360.332C868.674 374.486 867.778 395.763 861.806 408.596C853.585 426.238 842.937 439.385 828.306 449.953L825.628 451.891C815.634 459.169 805.294 466.706 792.1 470.971C788.591 472.107 784.933 473.057 781.406 473.977C777.496 474.995 773.465 476.045 769.676 477.335C753.311 482.916 736.163 487.429 718.475 490.81C708.64 492.677 698.48 493.693 688.25 493.834C686.421 493.884 684.648 493.902 682.885 493.902ZM479.534 470.31C511.028 470.31 543.137 474.298 575.76 478.884C584.858 480.162 593.769 481.557 602.737 484.52C610.995 487.248 619.319 488.131 629.35 489.001C631.888 489.217 634.427 489.446 636.965 489.674C653.696 491.162 670.987 492.717 688.11 492.334C698.144 492.198 708.108 491.204 717.756 489.378C735.307 486.019 752.323 481.541 768.566 476.008C772.455 474.734 776.438 473.591 780.501 472.582C783.991 471.675 787.602 470.73 791.027 469.625C803.829 465.477 814.019 458.058 823.873 450.885L826.551 448.941C840.95 438.527 851.438 425.559 859.557 408.14C865.408 395.578 866.294 374.807 856.412 360.968C853.855 357.388 850.001 354.32 846.558 351.783C835.892 343.932 827.121 335.407 821.195 327.13C814.383 317.612 812.162 308.396 814.775 300.489C819.058 287.526 833.037 274.86 845.373 263.718C849.022 260.416 852.465 257.305 855.638 254.243C859.09 250.898 861.61 248.262 863.812 245.694C872.406 235.719 882.923 219.201 886.655 202.764C889.604 189.801 889.333 172.061 871.286 161.234C867.37 158.969 863.271 156.847 859.006 154.876C856.897 153.864 854.779 152.852 852.707 151.79C837.077 143.858 820.869 139.827 803.708 135.556C794.199 133.192 784.364 130.747 774.473 127.531C766.158 124.852 756.986 121.223 752.003 114.643C744.688 104.905 736.402 95.4997 727.2 86.4895C704.804 64.8482 675.625 56.0522 629.695 57.0707L622.893 57.2126C599.62 57.6941 575.555 58.1879 553.01 62.6384C544.611 64.2988 536.829 67.2926 529.317 70.1875C521.665 73.1381 513.752 76.1873 505.056 77.8848C486.262 81.5884 469.951 77.607 452.678 73.4282C450.523 72.9097 448.348 72.385 446.146 71.8727L441.07 70.6752C408.065 62.8606 376.786 55.4843 344.098 69.6814C327.376 76.9342 315.721 86.0327 309.441 96.7052C307.097 100.958 305.147 105.301 303.599 109.711C300.24 118.464 296.769 127.519 286.98 134.716C280.834 139.074 273.88 142.901 266.283 146.105C258.519 149.444 250.363 151.117 241.722 152.895C225.812 156.16 213.215 160.172 204.173 164.833C194.589 169.771 189.849 176.147 188.309 186.165C187.843 189.19 189.14 192.838 190.521 196.702C193.535 205.177 196.96 214.788 179.323 217.775C177.135 218.093 174.901 218.252 172.66 218.251C170.805 218.262 168.955 218.373 167.127 218.584C150.657 220.8 138.022 228.368 126.834 236.213C109.916 248.083 103.393 267.329 100.902 281.391C97.1038 302.803 113.107 313.624 133.366 327.327C135.148 328.562 136.968 329.796 138.797 331.031C146.626 336.395 157.329 340.099 167.724 343.679C182.654 348.858 198.163 354.172 205.908 364.709C209.137 369.079 212.683 374.283 214.577 379.795C218.049 389.881 218.394 402.936 218.077 412.109L218.021 413.627C217.806 419.121 217.591 424.8 219.887 430.139C232.867 460.576 267.179 490.168 314.47 487.723C322.141 487.322 329.988 487.248 337.566 487.18C349.435 487.069 361.715 486.952 373.548 485.575C384.503 484.298 395.187 481.785 405.526 479.359C412.31 477.773 419.318 476.125 426.382 474.829C443.707 471.733 461.589 470.213 479.534 470.31Z" stroke="url(#paint2_linear_67_117)" stroke-width="2" stroke-miterlimit="10"/>
<path d="M685.45 513.332C684.198 513.332 682.938 513.332 681.649 513.246C678.091 513.067 674.496 512.9 670.891 512.74C648.479 511.722 625.404 510.672 604.084 505.995C595.68 504.143 587.434 501.836 579.45 499.595C565.806 495.776 551.705 491.82 536.727 490.185C517.947 488.142 498.617 488.901 479.912 489.641C474.617 489.851 469.332 490.061 464.037 490.209C441.933 490.826 421.594 494.881 401.927 498.799C386.706 501.829 370.961 504.97 354.301 506.556C343.88 507.556 332.991 507.47 322.458 507.389C320.16 507.389 317.882 507.352 315.613 507.346C289.064 507.272 254.68 502.249 237.777 488.383C236.171 487.062 234.518 485.741 232.875 484.421C226.468 479.305 219.801 474.01 214.945 468.098C206.764 458.224 201.703 449.048 199.901 440.767C197.818 431.22 198.332 421.217 198.827 411.54C199.023 407.733 199.228 403.796 199.256 399.994C199.378 386.621 195.39 375.705 187.425 367.553C180.225 360.191 172.082 358.086 162.65 355.643C157.423 354.381 152.374 352.82 147.559 350.977C144.78 349.809 142.128 348.514 139.621 347.102C137.754 346.078 135.746 345.016 133.729 344.109C130.698 342.827 127.516 341.708 124.213 340.764C121.464 339.955 118.783 339.049 116.182 338.049C75.4854 321.77 63.2895 281.59 75.336 253.703C77.8107 247.97 82.1063 243.144 86.6541 238.028L87.0463 237.584C99.0648 224.051 119.236 220.922 140.593 217.583L145.327 216.843C166.236 213.517 166.404 200.835 166.563 188.567C166.563 186.031 166.637 183.63 166.843 181.31C168.477 163.414 181.028 152.565 205.214 148.115C208.408 147.529 211.583 146.918 214.749 146.307C222.331 144.845 230.176 143.339 238.095 142.197C253.307 140.013 263.523 137.551 273.907 130.781C287.962 121.623 291.361 113.638 293.303 100.246C293.779 97.0128 293.882 93.557 293.994 89.9037C294.349 78.0861 294.751 64.6948 308.936 56.5799C342.918 37.0731 390.618 42.479 428.373 49.3659L429.466 49.5634C471.395 57.2093 499.084 62.2573 538.791 47.3233C554.666 41.3496 572.708 38.8997 591.356 36.7275C642.904 30.7045 690.791 37.3446 722.71 54.8705C735.784 62.0536 743.889 71.8903 751.743 81.4061C760.297 91.7674 769.131 102.48 784.334 109.509C795.661 114.742 812.162 119.488 829.625 122.53C833.635 123.146 837.733 123.477 841.849 123.518C844.277 123.598 846.789 123.678 849.385 123.888C869.677 125.548 889.662 132.848 902.847 143.413C916.621 154.447 925.502 169.332 926.604 183.266L926.875 186.351C927.333 191.603 927.594 196.713 925.829 201.353C920.226 216.016 908.833 236.93 886.066 253.308C882.219 256.078 878.194 258.862 874.291 261.528C860.208 271.21 845.64 281.226 836.311 293.457C833.902 296.61 830.512 301.368 828.841 306.243C827.309 310.81 828.841 314.074 831.119 318.197C831.848 319.486 832.427 320.782 832.987 322.029C834.229 324.769 835.406 327.361 837.852 329.767C839.935 331.822 842.521 333.316 845.323 334.895C847.736 336.195 849.959 337.641 851.962 339.215C856.221 342.745 861.964 345.683 868.034 348.793C878.838 354.31 890.007 360.024 892.239 369.367C899.859 401.204 874.888 428.986 849.46 451.961C848.115 453.195 846.817 454.429 845.519 455.614C840.803 460.057 835.919 464.649 829.336 468.314C819.045 474.059 807.783 478.848 796.838 483.483C786.734 487.802 776.294 492.209 766.75 497.361C765.293 498.145 763.864 498.966 762.435 499.787C758.401 502.095 754.227 504.489 749.362 506.18C744.496 507.871 739.015 508.766 733.739 509.611C731.806 509.92 729.882 510.228 727.995 510.574C721.16 511.808 715.361 512.005 708.656 512.203L705.126 512.314C702.324 512.413 699.597 512.61 696.936 512.795C693.125 513.111 689.29 513.29 685.45 513.332V513.332ZM509.421 487.358C518.687 487.305 527.945 487.753 537.1 488.697C552.341 490.357 566.582 494.35 580.346 498.207C588.293 500.435 596.502 502.736 604.804 504.557C625.852 509.179 648.825 510.222 671.05 511.228L681.827 511.734C686.795 511.894 691.775 511.747 696.703 511.296C699.392 511.104 702.184 510.907 705.014 510.808L708.562 510.697C715.099 510.5 720.805 510.333 727.388 509.117C729.256 508.766 731.255 508.457 733.216 508.142C738.342 507.322 743.656 506.47 748.297 504.847C752.938 503.224 756.972 500.898 760.913 498.676C762.361 497.843 763.808 497.016 765.274 496.207C774.911 491.005 785.408 486.544 795.568 482.23C806.429 477.62 817.653 472.85 827.897 467.148C834.248 463.606 838.833 459.298 843.679 454.732C844.987 453.497 846.294 452.263 847.639 451.06C872.796 428.332 897.496 400.883 890.007 369.602C887.915 360.851 877.111 355.328 866.661 349.984C860.741 346.96 854.624 343.813 850.188 340.153C848.278 338.656 846.155 337.284 843.847 336.056C840.851 334.495 838.195 332.667 835.956 330.625C833.314 328.027 832.034 325.201 830.792 322.473C830.241 321.239 829.662 320.005 828.971 318.733C826.609 314.512 824.937 310.884 826.599 305.928C828.262 300.973 831.764 296.012 834.229 292.784C843.717 280.356 858.406 270.26 872.61 260.491C876.494 257.819 880.519 255.054 884.348 252.302C906.76 236.152 918.06 215.485 923.569 200.995C925.259 196.558 924.998 191.585 924.55 186.45L924.466 185.426L924.288 183.377C923.205 169.77 914.511 155.2 901.045 144.407C888.41 134.28 868.491 127.004 849.068 125.418C846.556 125.215 844.081 125.134 841.7 125.054C837.425 125.01 833.171 124.662 829.009 124.017C811.266 120.932 794.522 116.112 782.98 110.774C767.347 103.542 758.373 92.6745 749.698 82.159C741.947 72.7666 733.935 63.0595 721.216 56.0677C689.811 38.7887 642.605 32.309 591.711 38.2456C573.277 40.3993 555.441 42.8122 539.892 48.6624C499.392 63.8803 471.33 58.7459 428.859 51.0197L427.766 50.8223C356.935 37.9124 327.846 47.6997 310.439 57.6722C296.973 65.3675 296.618 77.8763 296.254 89.9099C296.151 93.6125 296.039 97.0745 295.563 100.37C293.565 114.131 290.053 122.351 275.495 131.842C264.709 138.871 254.194 141.42 238.562 143.66C230.689 144.789 222.892 146.295 215.346 147.745C212.171 148.362 208.987 148.979 205.784 149.56C182.653 153.818 170.653 164.228 169.084 181.39C168.869 183.673 168.841 186.049 168.804 188.567C168.645 200.816 168.458 214.701 145.813 218.299L141.069 219.04C120.207 222.279 100.503 225.365 88.97 238.324L88.5778 238.769C84.1047 243.798 79.8838 248.544 77.4838 254.091C62.309 289.23 86.346 324.343 117.321 336.734C119.851 337.704 122.457 338.584 125.128 339.37C128.552 340.352 131.848 341.52 134.98 342.862C137.072 343.807 139.089 344.886 141.032 345.948C143.452 347.315 146.013 348.569 148.698 349.7C153.437 351.501 158.405 353.025 163.546 354.254C172.941 356.686 181.812 358.981 189.414 366.751C197.622 375.137 201.722 386.331 201.61 400.007C201.61 403.833 201.376 407.782 201.18 411.596C200.685 421.204 200.171 431.146 202.226 440.557C203.991 448.659 208.968 457.688 217.018 467.376C221.818 473.158 228.364 478.398 234.695 483.464C236.358 484.791 238.011 486.112 239.626 487.438C256.024 500.891 289.671 505.766 315.687 505.84C317.956 505.84 320.244 505.841 322.551 505.884C333.001 505.964 343.796 506.05 354.04 505.069C370.513 503.489 386.173 500.373 401.311 497.361C421.118 493.418 441.597 489.339 463.981 488.722C469.248 488.574 474.524 488.364 479.8 488.154C489.568 487.747 499.495 487.358 509.449 487.358H509.421Z" stroke="url(#paint3_linear_67_117)" stroke-width="2" stroke-miterlimit="10"/>
<path d="M702.925 527.781C694.071 527.781 684.825 526.614 675.868 525.478C674.385 525.293 672.92 525.101 671.474 524.929C647.673 522.008 622.314 518.409 598.019 511.921C586.216 508.772 575.506 506.106 563.908 505.389C555.222 504.852 546.601 503.92 538.27 503.025C521.214 501.173 505.102 499.444 487.804 500.66L480.918 501.13C475.619 501.482 470.142 501.846 464.805 502.321C448.693 503.741 432.346 507.223 416.551 510.587C409.507 512.088 402.22 513.637 395.092 514.958C391.234 515.738 387.447 516.662 383.747 517.724C378.96 519.033 374.006 520.385 368.819 521.089L368.361 521.144C359.171 522.379 349.701 523.651 340.026 522.644C333.425 522.064 326.775 521.759 320.116 521.731C308.379 521.521 296.241 521.298 285.465 518.15C279.652 516.452 273.746 514.952 268.036 513.501C247.51 508.291 228.123 503.371 214.323 490.042C197.427 473.744 189.272 457.761 187.882 438.185C187.724 436.03 187.472 433.863 187.22 431.74C186.828 428.356 186.417 424.862 186.417 421.387C186.417 419.337 186.501 417.281 186.595 415.213C186.895 411.181 186.836 407.141 186.417 403.113C185.438 395.871 181.818 391.383 177.629 386.154C175.265 383.327 173.147 380.412 171.284 377.425C169.176 373.931 168.065 372.665 162.953 371.128C138.909 363.874 119.699 357.386 102.504 350.7C88.4341 345.273 75.5587 335.229 68.2067 327.679C65.8336 325.135 63.6841 322.503 61.769 319.795C60.3788 317.943 58.97 315.986 57.3745 314.147C56.4415 313.042 55.5085 311.961 54.5756 310.893C49.4534 305.09 44.6111 299.608 42.8198 292.49C37.7629 272.377 47.9233 248.399 68.7198 231.403C73.8513 227.211 80.6435 225.057 87.1558 223.211C92.8809 221.693 98.7533 220.431 104.734 219.433C115.743 217.42 127.125 215.34 135.653 210.031C145.636 203.814 145.757 195.622 145.916 186.954C145.916 184.806 145.972 182.589 146.168 180.429C147.101 170.335 148.211 157.766 159.79 149.987C170.37 142.776 188.955 141.381 205.311 140.146C210.815 139.739 216.012 139.35 220.603 138.77C222.469 138.529 224.493 138.387 226.424 138.251C229.858 138.004 233.394 137.751 236.408 136.961C266.711 129.034 268.577 107.427 270.546 84.4677C271.955 68.1079 273.41 51.1925 286.23 39.7283C290.633 35.8143 298.433 32.1719 304.227 30.3199C308.239 29.0296 312.727 28.5666 317.065 28.1221L318.586 27.9616C342.844 25.3811 371.935 26.2762 407.445 30.7026C412.666 31.4358 417.807 32.4032 422.83 33.598C424.957 34.0672 427.075 34.5364 429.193 34.9685C473.23 43.9201 520.972 41.9631 556.892 29.7396C559.188 28.9617 561.464 28.0851 563.666 27.2331C567.518 25.6669 571.545 24.2966 575.711 23.1339C591.385 19.0532 613.087 19.473 630.515 19.8126L635.423 19.899C644.389 20.0533 653.243 20.8868 661.808 21.6893C667.023 22.177 672.416 22.6833 677.781 23.029L679.19 23.1216C685.133 23.4982 690.75 23.8562 696.599 25.3687C714.326 29.9371 729.795 36.5366 742.634 42.3891C758.205 49.4886 764.214 58.613 771.165 69.1697C772.098 70.5464 773.031 71.954 773.964 73.3801C788.509 94.9256 822.386 103.161 855.134 111.131C870.995 114.989 887.416 118.978 901.113 124.423C923.355 133.263 939.711 150.895 949.722 176.842C950.114 177.867 950.465 178.895 950.776 179.929C956.57 199.245 949.731 223.952 934.159 240.009C930.821 243.317 927.194 246.493 923.299 249.522C921.06 251.331 918.737 253.196 916.6 255.079C914.809 256.653 913.083 258.289 911.422 259.875C908.303 262.99 904.875 265.964 901.159 268.778C898.597 270.634 896.025 272.486 893.443 274.334C882.425 282.267 871.051 290.471 860.406 298.892C854.267 303.757 849.648 307.967 850.544 314.091C852.41 326.525 866.965 334.007 881.072 341.254C888.508 345.107 896.242 349.082 902.008 353.75C920.211 368.566 921.097 388.432 904.705 414.478C903.669 416.127 902.661 417.781 901.654 419.417C898.51 424.591 895.253 429.943 891.12 434.944C889.464 436.826 887.503 438.584 885.27 440.185C884.197 441.012 883.106 441.846 882.061 442.759C881.053 443.664 880.119 444.604 879.262 445.574C878.052 446.97 876.65 448.288 875.073 449.513C867.002 455.384 859.492 461.755 852.233 467.922C842.679 476.028 832.798 484.406 821.519 491.789C800.993 505.223 773.133 516.347 743.147 523.101C731.047 525.77 718.447 527.32 705.706 527.707C704.763 527.775 703.839 527.781 702.925 527.781ZM499.532 498.765C512.92 498.765 525.945 500.173 538.643 501.543C546.947 502.438 555.521 503.395 564.123 503.895C576.019 504.63 587.355 507.458 598.877 510.532C622.986 516.971 648.223 520.545 671.894 523.453L676.307 524.009C686.075 525.243 696.208 526.515 705.584 526.25C718.109 525.863 730.494 524.339 742.391 521.718C772.088 515.032 799.621 504.044 819.923 490.764C831.119 483.449 840.925 475.108 850.441 467.04C857.728 460.866 865.267 454.458 873.384 448.519C874.869 447.369 876.187 446.129 877.321 444.815C878.219 443.799 879.2 442.816 880.26 441.87C881.342 440.932 882.471 440.068 883.554 439.228C885.693 437.71 887.57 436.039 889.152 434.246C893.21 429.307 896.438 424.016 899.564 418.88C900.571 417.219 901.579 415.559 902.624 413.904C918.662 388.42 917.888 369.054 900.273 354.713C894.675 350.169 887.034 346.236 879.626 342.44C865.136 335.032 850.152 327.321 848.23 314.239C847.241 307.529 852.121 303.065 858.605 297.923C869.26 289.477 880.68 281.254 891.717 273.309L899.424 267.753C903.084 264.989 906.459 262.067 909.528 259.005C911.198 257.412 912.934 255.758 914.753 254.165C916.927 252.257 919.259 250.374 921.517 248.559C925.372 245.571 928.964 242.438 932.275 239.176C947.557 223.421 954.256 199.178 948.574 180.213C948.276 179.206 947.93 178.206 947.548 177.206C937.686 151.666 921.685 134.337 899.965 125.713C886.455 120.342 870.109 116.378 854.379 112.545C821.164 104.47 786.82 96.1171 771.892 73.9912C770.959 72.559 770.026 71.1514 769.093 69.7686C762.282 59.4218 756.405 50.4825 741.374 43.6299C728.639 37.8269 713.272 31.2829 695.797 26.7701C690.199 25.3317 684.778 24.986 679.003 24.6217L677.594 24.5291C672.183 24.1772 666.771 23.671 661.528 23.1771C653.028 22.3808 644.24 21.5535 635.404 21.4053L630.487 21.3127C613.255 20.9794 591.824 20.5657 576.579 24.5291C572.523 25.6688 568.603 27.0081 564.851 28.5357C562.621 29.3938 560.316 30.2828 557.975 31.0792C521.494 43.488 473.118 45.4758 428.521 36.4316C426.385 35.9995 424.248 35.5241 422.102 35.0488C417.177 33.8798 412.141 32.929 407.025 32.2028C371.767 27.7887 342.975 26.8998 318.95 29.4494L317.41 29.6408C313.24 30.0729 308.929 30.5174 305.216 31.7089C299.861 33.4251 292.21 36.9564 288.068 40.6605C275.659 51.7728 274.222 68.4413 272.832 84.585C270.9 106.976 268.913 130.139 237.247 138.424C233.954 139.288 230.25 139.554 226.667 139.807C224.698 139.949 222.823 140.085 221.069 140.313C216.404 140.931 211.151 141.295 205.6 141.708C189.627 142.9 171.508 144.246 161.367 151.061C150.394 158.469 149.294 170.687 148.407 180.527C148.211 182.657 148.183 184.849 148.155 186.979C148.025 195.585 147.903 204.487 137.211 211.142C128.264 216.698 116.611 218.84 105.331 220.902C99.4521 221.879 93.6794 223.117 88.0515 224.606C81.7351 226.353 75.2508 228.428 70.4458 232.335C50.0505 249.004 40.0674 272.513 45.0217 292.218C46.7477 299.071 51.4873 304.436 56.4975 310.122C57.4305 311.196 58.3635 312.282 59.3618 313.393C60.9666 315.246 62.4127 317.227 63.8216 319.116C65.6949 321.778 67.8008 324.365 70.1286 326.864C77.3407 334.272 89.9362 344.107 103.717 349.453C120.846 356.114 139.982 362.578 163.96 369.825C169.754 371.573 171.238 373.252 173.458 376.937C175.293 379.874 177.38 382.739 179.709 385.518C183.833 390.655 187.724 395.507 188.75 403.051C189.176 407.138 189.238 411.238 188.937 415.33C188.843 417.374 188.75 419.417 188.759 421.454C188.759 424.875 189.161 428.338 189.552 431.69C189.814 433.851 190.066 436.012 190.215 438.185C191.586 457.434 199.619 473.176 216.264 489.233C229.662 502.154 248.723 506.995 268.913 512.119C274.651 513.575 280.585 515.082 286.444 516.792C296.81 519.823 308.715 520.039 320.237 520.249C326.994 520.271 333.741 520.58 340.437 521.175C349.673 522.15 358.556 520.953 367.97 519.687L368.417 519.632C373.418 518.959 378.27 517.638 382.963 516.354C386.744 515.267 390.616 514.325 394.56 513.532C401.595 512.217 408.863 510.668 415.888 509.174C431.749 505.784 448.226 502.284 464.544 500.846C469.909 500.37 475.404 500.006 480.722 499.648L487.599 499.185C491.556 498.901 495.533 498.757 499.513 498.753L499.532 498.765Z" stroke="url(#paint4_linear_67_117)" stroke-width="2" stroke-miterlimit="10"/>
<path d="M684.135 547.21C680.28 547.21 676.491 547.019 672.58 546.828L667.596 546.593C654.155 546.044 638.605 542.947 624.894 540.214L618.537 538.98C612.719 537.76 607.013 536.318 601.447 534.661C599.338 534.044 597.228 533.464 595.11 532.891C548.011 520.182 511.012 516.184 471.39 519.552C461.235 520.416 451.901 522.205 442.035 524.099L440.71 524.352C429.463 526.511 412.783 529.442 397.775 529.979C394.312 530.108 390.868 530.213 387.442 530.318C370.884 530.824 355.25 531.299 339.102 533.847L333.726 534.705C323.711 536.321 314.246 537.839 303.942 538.56C271.703 540.8 245.354 536.185 215.822 523.137C203.604 517.738 191.022 505.449 185.384 496.608C179.961 488.125 176.564 478.297 175.285 467.402C174.622 461.8 174.734 456.062 174.846 450.522C174.846 448.369 174.93 446.203 174.93 444.075V442.051C174.93 426.165 174.93 408.156 161.07 394.744C159.214 393.058 157.167 391.468 154.947 389.987C152.923 388.624 151.025 387.182 149.262 385.669C143.055 380.116 129.661 377.648 117.798 375.452C112.604 374.57 107.5 373.47 102.519 372.157C96.9185 370.566 91.3835 368.925 85.8393 367.283L76.5055 364.538C66.789 361.725 59.9567 358.523 54.3564 354.167C51.4816 351.928 48.4388 349.707 45.2186 347.381C34.7554 339.681 23.8816 331.741 18.0386 322.629C16.3959 320.075 14.4544 317.465 12.569 314.948C8.49949 309.5 4.28995 303.843 2.46986 297.908C1.46181 294.589 1.58315 291.171 1.69515 287.87C1.69515 286.883 1.76982 285.896 1.76982 284.909C1.76982 279.572 2.22718 275.075 4.24328 270.478C13.1477 250.088 26.0003 237.058 47.2254 226.903C54.4217 223.473 62.1034 220.388 69.5238 217.378C83.3845 211.825 97.7119 206.032 109.071 197.827C113.738 194.44 116.687 191.546 116.753 187.573C116.753 186.154 116.753 184.729 116.753 183.31C116.753 182.273 116.753 181.237 116.753 180.225C116.753 178.066 116.753 175.906 116.753 173.753C116.753 169.182 116.753 164.604 116.753 160.032C116.603 150.821 120.552 143.307 128.485 137.693C136.671 131.912 147.209 128.654 157.289 125.81C165.363 123.534 173.68 122.763 181.735 122.01C186.523 121.566 191.479 121.103 196.37 120.332C198.795 119.995 201.266 119.82 203.744 119.807C205.106 119.77 206.469 119.739 207.86 119.641C212.181 119.326 219.06 117.204 222.691 115.421C240.323 106.827 242.722 93.7537 242.694 80.9088V79.9711C242.694 69.7297 242.628 59.1368 247.79 49.3026C248.966 47.0569 250.31 44.7866 251.607 42.5902C252.342 41.3563 253.067 40.1224 253.782 38.8885C254.128 38.2716 254.445 37.6546 254.716 37.087C256.041 34.5761 257.292 32.207 260.587 30.023C264.749 27.3648 269.305 24.99 274.186 22.9343C278.793 20.9215 283.735 19.2654 288.915 17.9987C295.831 16.191 302.477 15.426 309.514 14.6178C311.381 14.4019 313.332 14.1798 315.273 13.9392C335.462 11.3974 357.406 14.8029 376.755 17.8074L377.156 17.8691C378.51 18.0789 379.844 18.2516 381.17 18.4244C384.876 18.8108 388.492 19.5074 391.932 20.4973C395.727 21.7763 399.712 22.7935 403.823 23.5327C405.385 23.837 406.905 24.2271 408.368 24.6987C410.18 25.3207 412.131 25.7476 414.146 25.9635C419.477 26.2586 424.839 26.2028 430.153 25.7969C449.512 24.3594 469.57 24.563 488.956 24.7481C493.623 24.7913 498.346 24.8406 503.013 24.8653C515.026 24.9147 527.748 23.2057 542.859 19.4485C550.494 17.5545 556.104 14.6055 561.527 11.7552C569.927 7.34401 577.851 3.17962 592.328 2.87114C597.807 2.74775 603.389 2.53182 608.774 2.31589C614.16 2.09996 619.835 1.88403 625.379 1.76681C658.253 1.08199 687.383 4.14205 711.754 10.9038C734.202 17.1288 745.057 26.1239 757.592 36.538C762.072 40.2397 766.702 44.0956 772.162 48.0625C773.824 49.2964 775.401 50.5303 776.978 51.7642C780.169 54.4339 783.711 56.9114 787.563 59.1676C794.013 62.7397 799.986 66.7129 805.764 70.5626C809.292 72.907 812.932 75.3316 816.638 77.6328C826.905 83.9997 839.552 87.8865 851.798 91.6499C859.222 93.8274 866.463 96.2679 873.49 98.9607C875.207 99.6455 876.841 100.33 878.446 100.997C884.149 103.384 889.544 105.636 896.526 107.03C898.934 107.518 901.295 107.962 903.61 108.4C915.501 110.652 926.739 112.78 937.146 118.61C948.72 125.088 956.29 132.245 964.308 139.821C967.108 142.462 969.983 145.195 973.119 147.959C982.891 156.596 986.867 167.534 989.472 177.085C991.058 182.915 991.03 188.486 991.002 194.359V194.606C991.002 196.284 991.058 197.968 991.114 199.653C991.31 205.205 991.525 210.918 989.248 216.397C981.519 234.819 969.133 251.519 953.443 264.697C931.042 283.533 910.452 295.02 886.763 301.949C878.241 304.417 873.546 307.662 872.818 311.53C870.802 322.29 898.364 336.541 916.603 345.974C923.584 349.583 929.091 352.434 931.602 354.358C937.389 358.776 941.076 364.23 944.669 369.511L945.509 370.745C956.262 386.588 942.252 408.483 930.995 426.079C928.382 430.163 925.908 434.019 923.986 437.455C922.283 440.285 920.271 443.03 917.965 445.667C915.742 448.196 913.792 450.827 912.132 453.539C909.537 458.141 907.465 461.448 902.705 465.329C899.518 468.029 896.594 470.861 893.95 473.806C891.147 476.917 888.029 479.9 884.616 482.733C882.161 484.689 879.818 486.78 877.541 488.81C873.998 492.125 870.122 495.278 865.939 498.249C863.139 500.1 860.665 502.161 858.229 504.135C855.793 506.109 853.32 508.114 850.575 509.99C830.106 523.957 812.699 528.116 786.35 534.408L781.804 535.5C756.127 541.67 731.01 543.706 704.418 545.877C700.376 546.204 696.325 546.538 692.237 546.883C689.55 547.109 686.844 547.218 684.135 547.21ZM497.786 516.881C528.41 516.881 559.137 521.527 595.968 531.466C598.106 532.045 600.224 532.644 602.353 533.242C607.822 534.878 613.432 536.302 619.153 537.505C621.216 537.906 623.344 538.332 625.519 538.739C639.118 541.454 654.528 544.526 667.717 545.063C669.407 545.131 671.077 545.217 672.72 545.298C679.254 545.618 685.339 545.914 691.929 545.359C696.023 545.014 700.087 544.679 704.119 544.354C730.59 542.194 755.576 540.158 781.011 534.057L785.556 532.965C811.607 526.74 828.818 522.631 848.923 508.904C851.602 507.053 854.066 505.079 856.446 503.148C858.826 501.217 861.459 499.082 864.287 497.163C868.4 494.251 872.214 491.159 875.702 487.909C877.989 485.867 880.369 483.757 882.842 481.74C886.175 478.959 889.219 476.032 891.952 472.979C894.644 469.977 897.625 467.092 900.875 464.342C905.43 460.64 907.409 457.444 909.938 452.977C911.623 450.214 913.603 447.534 915.865 444.957C918.12 442.383 920.085 439.702 921.746 436.937C923.696 433.47 926.17 429.595 928.793 425.492C939.881 408.169 953.676 386.625 943.325 371.374L942.495 370.14C938.994 364.964 935.382 359.609 929.819 355.333C927.458 353.519 921.746 350.57 915.137 347.152C896.47 337.51 868.319 322.943 870.503 311.333C871.334 306.903 876.477 303.275 885.782 300.554C909.117 293.731 929.409 282.385 951.595 263.754C967.098 250.73 979.344 234.208 986.989 215.983C989.201 210.721 988.996 205.107 988.8 199.677C988.744 197.975 988.678 196.278 988.688 194.594V194.341C988.688 188.517 988.744 183.007 987.194 177.313C984.506 167.442 980.716 157.201 971.261 148.829C968.106 146.04 965.204 143.276 962.404 140.648C954.479 133.158 946.984 126.076 935.644 119.721C925.6 114.107 915.109 112.114 902.975 109.819C900.642 109.375 898.308 108.924 895.854 108.443C888.583 106.981 883.057 104.68 877.186 102.237C875.599 101.57 873.975 100.892 872.267 100.213C865.313 97.5493 858.147 95.1356 850.799 92.9825C838.395 89.1759 825.589 85.2336 815.06 78.7002C811.327 76.3804 807.659 73.9497 804.121 71.5929C798.381 67.774 792.445 63.8256 786.07 60.2966C782.123 57.988 778.491 55.455 775.214 52.7267C773.656 51.4928 772.088 50.2589 770.445 49.0867C764.938 45.0827 760.29 41.2206 755.781 37.4819C743.433 27.2282 732.755 18.3565 710.849 12.2919C686.805 5.62273 658.019 2.60585 625.407 3.2845C619.891 3.40172 614.281 3.62382 608.868 3.83975C603.454 4.05568 597.863 4.27161 592.356 4.38883C578.673 4.68497 571.028 8.70747 562.945 12.9521C557.345 15.8764 551.633 18.8933 543.662 20.8798C528.28 24.6987 515.362 26.4694 502.994 26.3892C498.327 26.3892 493.661 26.3151 488.928 26.272C469.607 26.0807 449.624 25.8833 430.405 27.3084C424.93 27.7268 419.405 27.7826 413.913 27.475C411.634 27.2533 409.426 26.7843 407.379 26.0869C406.03 25.651 404.628 25.2898 403.188 25.0072C398.943 24.2415 394.827 23.1913 390.905 21.8731C387.624 20.9312 384.173 20.2718 380.638 19.9112C379.284 19.7385 377.922 19.5596 376.54 19.3436L376.139 19.2819C357.005 16.3144 335.322 12.9459 315.6 15.426C313.649 15.6728 311.726 15.8949 309.813 16.1108C302.897 16.9067 296.363 17.6594 289.661 19.4115C284.645 20.6407 279.86 22.2471 275.399 24.199C270.649 26.2021 266.212 28.5127 262.155 31.0965C259.233 33.0337 258.122 35.1437 256.834 37.5868C256.517 38.2037 256.19 38.8207 255.836 39.4376C255.126 40.6715 254.389 41.9054 253.651 43.1393C252.363 45.3233 251.029 47.5752 249.862 49.7962C244.831 59.3959 244.868 69.8531 244.896 79.9711V80.878C244.896 94.1238 242.414 107.623 223.961 116.612C220.069 118.506 212.872 120.77 208.028 121.115C206.581 121.22 205.162 121.257 203.744 121.294C201.417 121.303 199.097 121.464 196.818 121.775C191.815 122.565 186.812 123.009 181.968 123.484C173.698 124.249 165.895 124.977 158.101 127.186C148.245 129.968 137.95 133.146 130.1 138.717C122.577 144.029 118.834 151.191 118.984 160.008C119.058 164.585 119.04 169.163 118.984 173.747C118.984 175.9 118.984 178.066 118.984 180.213C118.984 181.243 118.984 182.273 118.984 183.297C118.984 184.729 118.984 186.16 118.984 187.616C118.9 192.552 114.662 196.019 110.704 198.882C99.1213 207.241 84.6445 213.071 70.6532 218.704C63.3262 221.622 55.6911 224.707 48.5601 228.125C27.7924 238.07 15.1545 250.859 6.43672 270.898C4.49529 275.297 4.0846 279.702 4.0566 284.915C4.0566 285.908 4.0566 286.908 3.98193 287.907C3.86993 291.121 3.74859 294.453 4.70997 297.612C6.47405 303.374 10.6089 308.92 14.6225 314.269C16.4892 316.805 18.4773 319.427 20.1481 322.024C25.8417 330.908 36.5662 338.744 46.936 346.326C50.1655 348.689 53.2177 350.922 56.1205 353.18C61.4687 357.351 68.0491 360.435 77.4389 363.187C80.5501 364.092 83.6614 365.007 86.7727 365.932C92.3076 367.567 97.8519 369.208 103.424 370.794C108.312 372.075 113.319 373.148 118.414 374.008C130.604 376.254 144.418 378.802 151.082 384.78C152.792 386.243 154.631 387.637 156.589 388.957C158.894 390.492 161.016 392.142 162.936 393.892C177.226 407.694 177.208 425.974 177.198 442.058V444.075C177.198 446.222 177.198 448.394 177.114 450.541C177.002 456.05 176.89 461.75 177.544 467.285C178.804 478.019 182.145 487.687 187.466 496.022C192.982 504.659 205.2 516.628 217.072 521.866C246.511 534.89 271.61 539.282 303.681 537.055C313.836 536.352 323.226 534.84 333.166 533.236L338.552 532.379C354.914 529.8 370.651 529.294 387.311 528.806C390.737 528.702 394.172 528.597 397.635 528.473C412.41 527.937 428.921 525.037 440.057 522.921L441.373 522.668C451.341 520.755 460.75 518.966 471.082 518.072C479.936 517.299 488.856 516.902 497.786 516.881Z" stroke="url(#paint5_linear_67_117)" stroke-width="2" stroke-miterlimit="10"/>
<defs>
<linearGradient id="paint0_linear_67_117" x1="498.308" y1="81.3855" x2="498.308" y2="471.482" gradientUnits="userSpaceOnUse">
<stop stop-color="#F39599"/>
<stop offset="1" stop-color="#FFF0E9" stop-opacity="0"/>
</linearGradient>
<linearGradient id="paint1_linear_67_117" x1="494.542" y1="66.9375" x2="494.542" y2="478.955" gradientUnits="userSpaceOnUse">
<stop stop-color="#F39599"/>
<stop offset="1" stop-color="#FFF0E9" stop-opacity="0"/>
</linearGradient>
<linearGradient id="paint2_linear_67_117" x1="494.166" y1="55.4792" x2="494.166" y2="493.902" gradientUnits="userSpaceOnUse">
<stop stop-color="#F39599"/>
<stop offset="1" stop-color="#FFF0E9" stop-opacity="0"/>
</linearGradient>
<linearGradient id="paint3_linear_67_117" x1="499.061" y1="34.5544" x2="499.061" y2="513.332" gradientUnits="userSpaceOnUse">
<stop stop-color="#F5969A"/>
<stop offset="1" stop-color="#FFF0E9" stop-opacity="0"/>
</linearGradient>
<linearGradient id="paint4_linear_67_117" x1="497.178" y1="19.6086" x2="497.178" y2="527.781" gradientUnits="userSpaceOnUse">
<stop stop-color="#F39599"/>
<stop offset="1" stop-color="#FFF0E9" stop-opacity="0"/>
</linearGradient>
<linearGradient id="paint5_linear_67_117" x1="496.425" y1="1.67285" x2="496.425" y2="547.21" gradientUnits="userSpaceOnUse">
<stop stop-color="#F39599"/>
<stop offset="1" stop-color="#FFF0E9" stop-opacity="0"/>
</linearGradient>
</defs>
</svg>
