<svg width="500" height="373" viewBox="0 0 500 373" fill="none" xmlns="http://www.w3.org/2000/svg">
<g clip-path="url(#clip0_1_1900)">
<path d="M500 327.4H0V327.6H500V327.4Z" fill="#DBDBDB"/>
<path d="M119.6 338H85.8999V338.2H119.6V338Z" fill="#DBDBDB"/>
<path d="M78.6001 338.2H58.6001V338.4H78.6001V338.2Z" fill="#DBDBDB"/>
<path d="M303.1 332.8H208.3V333H303.1V332.8Z" fill="#DBDBDB"/>
<path d="M167.8 345.1H137.6V345.3H167.8V345.1Z" fill="#DBDBDB"/>
<path d="M413.7 336.2H335V336.4H413.7V336.2Z" fill="#DBDBDB"/>
<path d="M237 282.8H43.9C40.8 282.8 38.2 280.2 38.2 277.1V5.7C38.2 2.6 40.8 0 43.9 0H237C240.1 0 242.7 2.6 242.7 5.7V277.1C242.7 280.3 240.2 282.8 237 282.8ZM43.9 0.2C40.9 0.2 38.4 2.6 38.4 5.7V277.1C38.4 280.1 40.8 282.6 43.9 282.6H237C240 282.6 242.5 280.2 242.5 277.1V5.7C242.5 2.7 240.1 0.2 237 0.2H43.9Z" fill="#DBDBDB"/>
<path d="M453.3 282.8H260.2C257.1 282.8 254.5 280.2 254.5 277.1V5.7C254.5 2.6 257.1 0 260.2 0H453.3C456.4 0 459 2.6 459 5.7V277.1C459 280.3 456.5 282.8 453.3 282.8ZM260.2 0.2C257.2 0.2 254.7 2.6 254.7 5.7V277.1C254.7 280.1 257.1 282.6 260.2 282.6H453.3C456.3 282.6 458.8 280.2 458.8 277.1V5.7C458.8 2.7 456.4 0.2 453.3 0.2H260.2Z" fill="#DBDBDB"/>
<path d="M421.2 210.8H395.7V327.4H421.2V210.8Z" fill="#DBDBDB"/>
<path d="M416.4 327.4H421.2V313.7H411.3L416.4 327.4Z" fill="#EEEEEE"/>
<path d="M326 210.8H300.5V327.4H326V210.8Z" fill="#DBDBDB"/>
<path d="M421.3 210.8H321.8V319H421.3V210.8Z" fill="#EEEEEE"/>
<path d="M373.084 266.006V301.806H417.384V266.006H373.084Z" fill="#DBDBDB"/>
<path d="M325.488 266.01V301.81H369.788V266.01H325.488Z" fill="#DBDBDB"/>
<path d="M352.1 269.9H343.3C339.5 269.9 335.8 268.3 333.2 265.6H362.1C359.5 268.3 355.9 269.9 352.1 269.9Z" fill="#EEEEEE"/>
<path d="M400.1 269.9H391.3C387.5 269.9 383.8 268.3 381.2 265.6H410.1C407.6 268.3 403.9 269.9 400.1 269.9Z" fill="#EEEEEE"/>
<path d="M373.14 218.95V254.75H417.44V218.95H373.14Z" fill="#DBDBDB"/>
<path d="M325.544 218.954V254.754H369.844V218.954H325.544Z" fill="#DBDBDB"/>
<path d="M352.1 222.8H343.3C339.5 222.8 335.8 221.2 333.2 218.5H362.1C359.5 221.3 355.9 222.8 352.1 222.8Z" fill="#EEEEEE"/>
<path d="M400.1 222.8H391.3C387.5 222.8 383.8 221.2 381.2 218.5H410.1C407.6 221.3 403.9 222.8 400.1 222.8Z" fill="#EEEEEE"/>
<path d="M326.6 327.4H321.8V313.7H331.7L326.6 327.4Z" fill="#EEEEEE"/>
<path d="M346.4 192.6C346.4 197.1 349.5 200.2 345 200.2C340.5 200.2 330.2 197.1 330.2 192.6C330.2 188.1 333.8 184.5 338.3 184.5C342.8 184.5 346.4 188.1 346.4 192.6Z" fill="#CDCDCD"/>
<path d="M360.2 196.4C360.2 200.9 363.3 204 358.8 204C354.3 204 344 200.9 344 196.4C344 191.9 347.6 188.3 352.1 188.3C356.6 188.3 360.2 191.9 360.2 196.4Z" fill="#CDCDCD"/>
<path d="M373.4 194C373.4 198.5 376.5 201.6 372 201.6C367.5 201.6 357.2 198.5 357.2 194C357.2 189.5 360.8 185.9 365.3 185.9C369.8 185.9 373.4 189.6 373.4 194Z" fill="#CDCDCD"/>
<path d="M325.3 195.1C325.3 195.1 326 210.8 351.2 210.8C376.5 210.8 377.1 195.1 377.1 195.1H325.3Z" fill="#F0F0F0"/>
<path d="M422.2 19H294V160.9H422.2V19Z" fill="#DBDBDB"/>
<path d="M436 14.7H285.7C285 14.7 284.4 15.3 284.4 16C284.4 16.7 285 17.3 285.7 17.3H436C436.7 17.3 437.3 16.7 437.3 16C437.3 15.2 436.7 14.7 436 14.7Z" fill="#DBDBDB"/>
<path d="M427.7 19H296.6V160.9H427.7V19Z" fill="#F0F0F0"/>
<path d="M422.2 160.9H294V171H422.2V160.9Z" fill="#DBDBDB"/>
<path d="M436.8 160.9H305.7V171H436.8V160.9Z" fill="#F0F0F0"/>
<path d="M420.14 153.332V26.6321L304.24 26.6321V153.332H420.14Z" fill="#F5FCFF"/>
<path d="M330.5 153.3L375.2 26.7H396.3L351.6 153.3H330.5Z" fill="white"/>
<path d="M356.2 153.3L400.9 26.7H409.1L364.4 153.3H356.2Z" fill="white"/>
<path d="M420.103 153.369V26.6692H419.103V153.369H420.103Z" fill="#DBDBDB"/>
<path d="M304.3 12.3999H291.2V134.6H304.3V12.3999Z" fill="#F4F4F4"/>
<path d="M309.4 12.3999H299.2V134.6H309.4V12.3999Z" fill="#DBDBDB"/>
<path d="M317.4 12.3999H304.3V134.6H317.4V12.3999Z" fill="#F4F4F4"/>
<path d="M322.5 12.3999H312.3V134.6H322.5V12.3999Z" fill="#DBDBDB"/>
<path d="M330.5 12.3999H317.4V134.6H330.5V12.3999Z" fill="#F4F4F4"/>
<path d="M415.3 12.3999H407.7V134.6H415.3V12.3999Z" fill="#F4F4F4"/>
<path d="M418.2 12.3999H412.3V134.6H418.2V12.3999Z" fill="#DBDBDB"/>
<path d="M422.8 12.3999H415.2V134.6H422.8V12.3999Z" fill="#F4F4F4"/>
<path d="M425.7 12.3999H419.8V134.6H425.7V12.3999Z" fill="#DBDBDB"/>
<path d="M430.4 12.3999H422.8V134.6H430.4V12.3999Z" fill="#F4F4F4"/>
<path d="M110.4 50.7H96.7V88H110.4V50.7Z" fill="#F0F0F0"/>
<path d="M78 96.4999L73.7 108.3H78L104.6 96.4999H78Z" fill="#F2F2F2"/>
<path d="M73.7 96.4999V108.3L100.3 96.4999H73.7Z" fill="#DBDBDB"/>
<path d="M182.2 96.4999L177.9 108.3H182.2L208.8 96.4999H182.2Z" fill="#F2F2F2"/>
<path d="M177.9 96.4999V108.3L204.4 96.4999H177.9Z" fill="#DBDBDB"/>
<path d="M54.1977 97.0798H83.0977V88.0798H54.1977V97.0798Z" fill="#DBDBDB"/>
<path d="M226.7 87.9999H83.1001V96.9999H226.7V87.9999Z" fill="#F2F2F2"/>
<path d="M133.1 87.9999H99.9L95.8 42.7999H129L133.1 87.9999Z" fill="#DBDBDB"/>
<path d="M134.8 87.9999H101.6L97.5 42.7999H130.7L134.8 87.9999Z" fill="#EEEEEE"/>
<path d="M106.1 82.9999L102.9 47.7999H126.2L129.4 82.9999H106.1Z" fill="white"/>
<path d="M148.3 73.2999C148.3 73.2999 148.9 87.9999 172.5 87.9999C196.1 87.9999 196.7 73.2999 196.7 73.2999H148.3Z" fill="#F0F0F0"/>
<path d="M123.8 324.2H87.3C85.6 324.2 84.2 323.2 83.6 321.6C83.1 320 83.6 318.3 85 317.3L85.6 318.1C84.4 319 84.3 320.3 84.6 321.3C84.9 322.2 85.8 323.3 87.3 323.3H123.7C128.3 323.3 132.1 319.5 132.1 314.9V206.9C132.1 201.8 136.2 197.7 141.3 197.7H152.2V198.7H141.3C136.8 198.7 133.1 202.4 133.1 206.9V314.8C133.2 320 129 324.2 123.8 324.2Z" fill="#DBDBDB"/>
<path d="M245.4 199.8H179.8V327.4H245.4V199.8Z" fill="#DBDBDB"/>
<path d="M247.9 199.8H242.5V327.4H247.9V199.8Z" fill="#F4F4F4"/>
<path d="M119.127 209.408L249.627 209.408V199.808L119.127 199.808V209.408Z" fill="#F4F4F4"/>
<path d="M118.3 199.8H52.7V327.4H118.3V199.8Z" fill="#DBDBDB"/>
<path d="M120.8 199.8H115.4V327.4H120.8V199.8Z" fill="#F4F4F4"/>
<path d="M98 161.7H159.2L168 197.8H106.9L98 161.7Z" fill="#DBDBDB"/>
<path d="M106.9 197.8L107.1 199.8H168.3L168 197.8H106.9Z" fill="#DBDBDB"/>
<path d="M99.8999 161.7H161.1L169.9 197.8H108.8L99.8999 161.7Z" fill="#EEEEEE"/>
<path d="M110.1 196.2L102 163.4H159.8L167.8 196.2H110.1Z" fill="white"/>
<path d="M124.7 197.8L125 199.8H192.3L192 197.8H124.7Z" fill="#EEEEEE"/>
<path d="M77.1 190.7C77.1 190.7 68.1 175.2 80.6 162.8C80.6 162.8 83.9 164.9 83.8 167.8C83.7 170.7 80.3 171.4 81.1 173.8C81.8 176.2 85.1 178.5 83 180.5C80.9 182.5 83.3 184.2 83.2 186.6C82.9 189 77.1 190.7 77.1 190.7Z" fill="#EEEEEE"/>
<path d="M77.8 192.1C77.8 192.1 81.4 174.5 65.7 166.8C65.7 166.8 63.3 169.8 64.2 172.5C65.1 175.2 68.6 174.8 68.7 177.3C68.7 179.8 66.4 183 69 184.2C71.6 185.4 69.8 187.8 70.7 190.1C71.7 192.4 77.8 192.1 77.8 192.1Z" fill="#EEEEEE"/>
<path d="M64 188.2C64 188.2 64.3 199.8 75.8 199.8C87.3 199.8 87.6 188.2 87.6 188.2H64Z" fill="#DBDBDB"/>
<path d="M225.7 327.4H223.4L216.9 295.2L215.8 289.6L208.7 254.6H181.4L166.6 327.4H164.3L179.4 253.2C179.5 252.7 180 252.3 180.5 252.3H209.6C210.1 252.3 210.6 252.7 210.7 253.2L217 284L218.1 289.6L225.7 327.4Z" fill="#F4F4F4"/>
<path d="M269.5 327.4H267.2L252.4 254.6H225.1L218 289.7L216.9 295.3L210.4 327.5H208.1L215.8 289.7L216.9 284.1L223.2 253.3C223.3 252.8 223.8 252.4 224.3 252.4H253.4C253.9 252.4 254.4 252.8 254.5 253.3L269.5 327.4Z" fill="#F4F4F4"/>
<path d="M202.3 253.5H252.4C262 253.5 269.8 245.8 270 236.3L271.9 160.1C272 152.9 266.3 147 259.1 147H227.7C221.2 147 215.7 151.9 215 158.4L202.3 253.5Z" fill="#F0F0F0"/>
<path d="M180.6 243.9H229.7V253.5H176.3C174.9 253.5 173.8 252.4 173.8 251V250.8C173.7 247 176.8 243.9 180.6 243.9Z" fill="#F0F0F0"/>
<path d="M250 372.6C357.088 372.6 443.9 367.541 443.9 361.3C443.9 355.059 357.088 350 250 350C142.912 350 56.1001 355.059 56.1001 361.3C56.1001 367.541 142.912 372.6 250 372.6Z" fill="#F0F6FF"/>
<path d="M276.4 115.9L277.1 116.5C277.3 116.7 277.6 116.9 277.9 117.1C278.4 117.5 278.9 117.9 279.5 118.3C280.6 119.1 281.7 119.8 282.9 120.5C285.2 121.9 287.6 123.2 290.2 124.2C292.7 125.2 295.3 126.2 297.9 126.8C298.6 127 299.2 127.1 299.9 127.2L300.9 127.4C301.1 127.4 300.9 127.4 300.8 127.4C300.7 127.4 300.5 127.5 300.4 127.6C300.3 127.7 300.3 127.7 300.4 127.7C300.5 127.6 300.7 127.2 300.9 126.8C301.2 125.8 301.4 124.6 301.6 123.3C301.7 122 301.8 120.6 301.7 119.2C301.7 116.4 301.5 113.6 301.3 110.7C301.1 107.8 300.7 105 300.4 102.1C300.1 99.2001 299.6 96.3001 299.2 93.5001L303 92.6001C304.7 98.3001 306 104.1 307 110C307.5 112.9 307.9 115.9 308.1 119C308.2 120.5 308.3 122.1 308.2 123.7C308.1 125.3 308 127 307.5 128.8C307.2 129.7 306.9 130.7 306.1 131.8C305.7 132.4 305.2 132.9 304.5 133.4C303.8 133.9 303 134.3 302.1 134.4C301.3 134.6 300.4 134.5 299.9 134.4L298.7 134.2C297.9 134.1 297.2 134 296.4 133.8C293.3 133.2 290.3 132.3 287.4 131.2C284.5 130.1 281.7 128.7 278.9 127.1C277.6 126.3 276.2 125.4 275 124.5C274.4 124 273.7 123.6 273.1 123.1C272.8 122.8 272.5 122.6 272.2 122.3C271.9 122 271.6 121.8 271.2 121.4L276.4 115.9Z" fill="#FF8B7B"/>
<path d="M265.6 111.3C276.6 109.8 285.4 118.7 285.4 118.7L275.3 134.2C275.3 134.2 264.5 127.3 262.6 122.6C260.7 117.7 259.9 112.1 265.6 111.3Z" fill="#FF9F9F"/>
<path d="M299.2 94.8L295.6 87.5L305.2 87.4C305.2 87.4 305.4 92.5 303 95.4L299.2 94.8Z" fill="#FF8B7B"/>
<path d="M297.2 79.6001L304.3 80.9001L305.1 87.4001L295.5 87.5001L297.2 79.6001Z" fill="#FF8B7B"/>
<path d="M226.7 352.9L235.6 353.8L241.8 332.7L232.9 331.9L226.7 352.9Z" fill="#FF8B7B"/>
<path d="M169.7 321.8L176.3 328L190.7 312.3L184 306L169.7 321.8Z" fill="#FF8B7B"/>
<path d="M179.4 325L174.4 316C174.2 315.7 173.8 315.5 173.5 315.7L165.8 318.6C165 318.9 164.7 319.9 165.1 320.7C166.9 323.8 167.9 325.2 170.1 329.2C171.5 331.6 174.1 337.2 175.9 340.6C177.7 343.9 181.2 342.3 180.7 340.7C178.6 333.7 179 329.8 179.6 326.7C179.8 326.1 179.7 325.5 179.4 325Z" fill="#14365B"/>
<path d="M236.7 351H225.8C225.4 351 225 351.3 224.9 351.7L222.5 360.3C222.3 361.2 222.9 362 223.8 362C227.6 362 229.4 362 234.2 362C237.1 362 244.7 362 248.8 362C252.8 362 253.6 358 252 357.6C244.6 356 240.4 353.7 238.1 351.6C237.8 351.3 237.3 351 236.7 351Z" fill="#14365B"/>
<path d="M241.8 332.7L238.6 343.6H229.4L232.9 331.9L241.8 332.7Z" fill="#EA7063"/>
<path d="M184 306L190.7 312.3L183.3 320.4L176.6 314.2L184 306Z" fill="#EA7063"/>
<path d="M276.4 105.1C276.3 97.8001 269.8 95.3001 269.8 95.3001C269.8 95.3001 278 79.7001 273.8 69.4001C269.6 59.1001 255.6 57.2001 251.2 62.1001C243.4 61.8001 241 72.9001 241 72.9001C241 72.9001 234.5 74.0001 232.8 78.7001C231 83.4001 236.4 88.8001 236.4 88.8001C236.4 88.8001 229 89.8001 226.3 95.5001C223.6 101.2 225.2 108.8 233.4 115.3C245.3 124.8 267.2 112.9 267.2 112.9C267.2 112.9 276.5 113.5 276.4 105.1Z" fill="#0F264C"/>
<path d="M275 112.3C275 112.3 279 114 265.6 166.8C250.9 165.5 235.7 164.2 228.6 163.6C230.5 148.6 231.3 139.3 226.8 107.7C226.8 107.7 234.7 106.7 242.7 107C249 107.2 254.1 107.5 259.5 108.5C266.7 109.8 275 112.3 275 112.3Z" fill="#FF9F9F"/>
<path d="M265.4 109.8C263.5 109.3 261.4 108.9 259.5 108.6C254.1 107.6 248.9 107.4 242.7 107.2C240.8 107.1 238.8 107.1 237 107.2L238.2 109.6C238.4 110 243.7 119.9 253.7 125.5L256.5 127L259.1 125.2C265.6 120.3 266.6 114.3 265.4 109.8Z" fill="white"/>
<path d="M246 88.3C246.6 93.8 246.8 103.8 242.7 107.1C242.7 107.1 247.4 116 256.2 120.9C264 115.3 259.5 108.5 259.5 108.5C253.6 106.5 254.1 102.1 255.5 98L246 88.3Z" fill="#FF8B7B"/>
<path d="M249.9 92.2001L255.6 97.9001C255.3 98.9001 255 99.9001 254.8 100.8C252.5 100.3 249.2 97.9001 249.2 95.5001C249.1 94.4001 249.6 92.8001 249.9 92.2001Z" fill="#EA7063"/>
<path d="M245.8 75.8001C244.7 84.8001 244.1 88.6001 247.7 94.0001C253.2 102.1 264.5 101.5 268.3 93.0001C271.7 85.3001 272.9 71.9001 264.8 66.7001C256.8 61.6001 246.8 66.7001 245.8 75.8001Z" fill="#FF8B7B"/>
<path d="M252.7 64.7001C259.7 66.5001 252.8 87.6001 241.7 81.5001C241.7 81.5001 242.2 72.6001 245.3 68.8001C248.4 65.0001 252.7 64.7001 252.7 64.7001Z" fill="#0F264C"/>
<path d="M252 65.8C255 70.7 277.3 79.9 269.8 69.4C262.3 58.9 252 65.8 252 65.8Z" fill="#0F264C"/>
<path d="M242.9 83.6001C242.7 85.5001 243.5 87.3001 244.5 88.4001C246 90.2001 248.1 89.1001 248.7 87.0001C249.3 85.1001 249.2 81.9001 247.1 80.9001C245.1 79.9001 243.1 81.4001 242.9 83.6001Z" fill="#FF8B7B"/>
<path d="M265.6 166.9C265.6 166.9 278.1 222.3 269.8 261.4C264.2 287.6 244 340.5 244 340.5L228.2 340.1C228.2 340.1 243.5 284.6 246.7 262.8C252.1 225.5 238.6 164.6 238.6 164.6L265.6 166.9Z" fill="#0F264C"/>
<path d="M251.1 178L243.2 190.5C245.2 203.4 247.2 219.6 247.7 235.1C258.9 215.2 253.6 188.6 251.1 178Z" fill="#0A1B35"/>
<path d="M245.3 341.3L225.7 340.8L226.9 334.8L248.2 335.8L245.3 341.3Z" fill="#FF9F9F"/>
<path d="M257.5 166.3C257.5 166.3 250.1 225.1 234.2 257.2C221.3 283.1 187 320 187 320L178.2 311C178.2 311 201.4 270.9 211 253.7C234.5 211.5 215.3 179.2 228.6 163.7L257.5 166.3Z" fill="#0F264C"/>
<path d="M187.9 321.2L176.5 310.2L180.3 305L192.7 317.8L187.9 321.2Z" fill="#FF9F9F"/>
<path d="M228.2 161.4L226.2 164.6C226 164.8 226.3 165.1 226.8 165.2L265.6 168.6C265.9 168.6 266.2 168.5 266.3 168.3L266.9 165C266.9 164.8 266.7 164.6 266.3 164.5L228.8 161.3C228.5 161.2 228.3 161.3 228.2 161.4Z" fill="#F2868B"/>
<path d="M232.9 166.1L231.9 166C231.7 166 231.6 165.9 231.6 165.7L232.4 161.4C232.4 161.3 232.6 161.2 232.8 161.2L233.8 161.3C234 161.3 234.1 161.4 234.1 161.6L233.3 165.9C233.3 166 233.1 166.1 232.9 166.1Z" fill="#0F264C"/>
<path d="M262.8 168.6L261.8 168.5C261.6 168.5 261.5 168.4 261.5 168.2L262.3 163.9C262.3 163.8 262.5 163.7 262.7 163.7L263.7 163.8C263.9 163.8 264 163.9 264 164.1L263.2 168.4C263.2 168.6 263 168.7 262.8 168.6Z" fill="#0F264C"/>
<path d="M247.8 167.4L246.8 167.3C246.6 167.3 246.5 167.2 246.5 167L247.3 162.7C247.3 162.6 247.5 162.5 247.7 162.5L248.7 162.6C248.9 162.6 249 162.7 249 162.9L248.2 167.2C248.2 167.3 248 167.4 247.8 167.4Z" fill="#0F264C"/>
<path d="M258.8 80.7C258.7 81.4 258.9 82.1 259.4 82.2C259.9 82.3 260.4 81.8 260.5 81C260.6 80.3 260.4 79.6 259.9 79.5C259.5 79.5 259 80 258.8 80.7Z" fill="#0F264C"/>
<path d="M267 82.2C266.9 82.9 267.1 83.6 267.6 83.7C268.1 83.8 268.6 83.3 268.7 82.5C268.8 81.8 268.6 81.1 268.1 81C267.7 81 267.2 81.5 267 82.2Z" fill="#0F264C"/>
<path d="M267.9 81.1L269.7 80.9C269.8 80.9 268.6 82.1 267.9 81.1Z" fill="#0F264C"/>
<path d="M264.6 83.1001C264.6 83.1001 265.3 86.5001 266.3 88.2001C265.2 88.9001 263.6 88.2001 263.6 88.2001L264.6 83.1001Z" fill="#FF5652"/>
<path d="M260.7 90.6001C257.3 90.0001 256.1 87.4001 256.1 87.3001C256.1 87.2001 256.1 87.1001 256.2 87.1001C256.3 87.1001 256.4 87.1001 256.4 87.2001C256.4 87.2001 257.5 89.7001 260.7 90.3001C260.8 90.3001 260.9 90.4001 260.8 90.5001C260.8 90.5001 260.8 90.6001 260.7 90.6001Z" fill="#0F264C"/>
<path d="M256.9 75.1001C256.8 75.1001 256.7 75.1001 256.6 75.0001C256.5 74.8001 256.5 74.6001 256.7 74.5001C258.6 73.1001 260.4 73.7001 260.5 73.7001C260.7 73.8001 260.8 74.0001 260.7 74.2001C260.6 74.4001 260.4 74.5001 260.2 74.4001C260.1 74.4001 258.6 73.9001 257.1 75.1001C257 75.0001 257 75.1001 256.9 75.1001Z" fill="#0F264C"/>
<path d="M271.7 79.5001C271.6 79.5001 271.5 79.5001 271.4 79.4001C270.2 77.9001 268.5 78.0001 268.5 78.0001C268.3 78.0001 268.1 77.9001 268.1 77.7001C268.1 77.5001 268.2 77.3001 268.4 77.3001C268.5 77.3001 270.4 77.1001 271.9 78.9001C272 79.1001 272 79.3001 271.8 79.4001C271.8 79.4001 271.8 79.5001 271.7 79.5001Z" fill="#0F264C"/>
<path d="M229.6 121C228.1 124.1 226.4 126.9 224.6 129.7C222.8 132.5 220.9 135.2 218.8 137.8C216.8 140.4 214.5 142.9 212.2 145.2C211 146.4 209.8 147.5 208.5 148.6L207.5 149.4L207.3 149.6L207 149.8C206.8 150 206.6 150.1 206.3 150.3C205.4 150.9 204.4 151.4 203.4 151.8C201.3 152.5 199.2 152.6 197.3 152.5C195.4 152.3 193.6 151.9 191.9 151.3C188.5 150.1 185.5 148.6 182.7 146.8C177.1 143.2 172.1 139 167.6 134.3L170.3 131.5C172.7 133.4 175.2 135.3 177.8 137.1C180.4 138.9 183 140.5 185.7 141.9C188.4 143.3 191.1 144.6 193.9 145.3C196.6 146.1 199.3 146.2 201.2 145.4C202.2 145 202.7 144.6 204 143.4C205.1 142.4 206.1 141.3 207.2 140.2C209.2 138 211.2 135.6 213 133.2C214.9 130.8 216.6 128.2 218.2 125.6C219 124.3 219.8 123 220.6 121.7C221.3 120.4 222.1 119 222.8 117.8L229.6 121Z" fill="#FF8B7B"/>
<path d="M172.7 132.7L169.1 125.3L163.2 132.8C163.2 132.8 167.1 136.1 170.9 136L172.7 132.7Z" fill="#FF8B7B"/>
<path d="M165.2 123.2L161.9 129.6L163.2 132.8L169.1 125.3L165.2 123.2Z" fill="#FF8B7B"/>
<path d="M226.8 107.8C222.3 108.6 215.9 121.6 215.9 121.6L228.4 132.9C228.4 132.9 236.5 122.1 236 116.1C235.5 111.1 232.6 106.7 226.8 107.8Z" fill="#FF9F9F"/>
<path d="M181.2 329.9C181.1 329.9 181 329.9 180.8 329.8C179.7 329.4 179 327.4 178.7 326.3C178.7 326.2 178.7 326.2 178.8 326.1C178.9 326.1 178.9 326 179 326.1C179.3 326.3 182.2 327.8 182.3 329C182.3 329.2 182.3 329.4 182 329.6C181.7 329.8 181.4 329.9 181.2 329.9ZM179.1 326.6C179.6 328.2 180.3 329.3 180.9 329.5C181.2 329.6 181.4 329.5 181.7 329.3C181.9 329.2 181.9 329.1 181.9 329C181.8 328.3 180.1 327.2 179.1 326.6Z" fill="#FF4040"/>
<path d="M181.6 327C180.6 327 179.3 326.7 178.8 326.3C178.7 326.3 178.7 326.2 178.7 326.1C178.7 326 178.7 326 178.8 325.9C178.9 325.8 181.2 324.6 182.4 325C182.7 325.1 183 325.3 183.1 325.6C183.3 326.1 183.1 326.4 182.9 326.5C182.6 327 182.2 327 181.6 327ZM179.2 326.2C180.2 326.6 182.1 326.9 182.6 326.4C182.7 326.3 182.8 326.2 182.7 325.9C182.6 325.7 182.5 325.5 182.2 325.5C181.4 325.2 179.9 325.9 179.2 326.2Z" fill="#FF4040"/>
<path d="M241.5 352.8C240.5 352.8 239.3 352.6 238.5 352.4C238.4 352.4 238.4 352.3 238.4 352.2C238.4 352.1 238.4 352 238.5 352C238.9 351.8 242.9 350 243.9 350.6C244 350.7 244.2 350.9 244.2 351.2C244.2 351.6 244 352 243.7 352.2C243.1 352.7 242.3 352.8 241.5 352.8ZM239.2 352.2C240.4 352.4 242.5 352.7 243.4 352C243.6 351.8 243.8 351.6 243.8 351.2C243.8 351.1 243.8 351 243.7 351C243.1 350.6 240.8 351.5 239.2 352.2Z" fill="#FF4040"/>
<path d="M238.6 352.4H238.5C238.4 352.4 238.4 352.3 238.4 352.2C238.4 352 239.3 348.1 241.5 348.4C242 348.5 242.2 348.7 242.2 348.9C242.3 349.9 239.8 351.9 238.6 352.4ZM241.3 348.8C239.9 348.8 239.1 351.1 238.9 352C240.2 351.3 242 349.7 241.9 349.1C241.9 349.1 241.9 348.9 241.5 348.9C241.4 348.8 241.3 348.8 241.3 348.8Z" fill="#FF4040"/>
<path d="M259.7 79.6L261.5 79.4C261.6 79.4 260.4 80.6 259.7 79.6Z" fill="#0F264C"/>
<path opacity="0.6" d="M184.5 22.6001L155.2 212L320.1 237.5L349.4 48.1001L184.5 22.6001ZM252.2 130.3C231.1 127 216.6 107.2 219.9 86.1001C223.2 65.0001 243 50.5001 264.1 53.8001C285.2 57.1001 299.7 76.8001 296.4 98.0001C293.2 119.1 273.4 133.6 252.2 130.3Z" fill="#F2868B"/>
<path opacity="0.3" d="M315.1 230.3H314.9L149.7 204.7V204.5L179 14.8H179.2L344.4 40.4001V40.6L315.1 230.3ZM150.3 204.3L314.7 229.7L343.9 40.8L179.5 15.4L150.3 204.3Z" fill="#F2868B"/>
<path d="M258.2 132.3C256.2 132.3 254.1 132.1 252 131.8C230.1 128.4 215 107.8 218.4 85.9C220 75.3 225.7 65.9 234.4 59.6C243.1 53.3 253.7 50.7 264.3 52.3C286.2 55.7 301.3 76.3 297.9 98.2C294.8 118.1 277.7 132.3 258.2 132.3ZM252.5 128.9C272.8 132 291.8 118.1 295 97.8C298.1 77.5 284.2 58.5 263.9 55.3C254.1 53.8 244.2 56.2 236.2 62C228.2 67.9 222.9 76.5 221.4 86.3C218.3 106.7 232.2 125.7 252.5 128.9Z" fill="white"/>
<path d="M220.408 142.062L184.042 136.435L182.773 144.637L219.139 150.264L220.408 142.062Z" fill="#FF9F9F"/>
<path d="M249.769 146.654L225.163 142.847L223.894 151.049L248.5 154.856L249.769 146.654Z" fill="#FF9F9F"/>
<path d="M312.838 173.306L181.506 152.985L180.237 161.188L311.569 181.508L312.838 173.306Z" fill="white"/>
<path d="M244.126 180.499L178.806 170.392L177.537 178.594L242.857 188.701L244.126 180.499Z" fill="white"/>
<path d="M298.962 188.92L255.283 182.161L254.014 190.364L297.693 197.122L298.962 188.92Z" fill="white"/>
<path d="M281.191 203.978L176.146 187.724L174.876 195.926L279.922 212.18L281.191 203.978Z" fill="white"/>
<path d="M351.2 237.5H350.2C350.2 235 349.9 232.5 349.3 230.1L350.3 229.9C350.9 232.4 351.2 235 351.2 237.5ZM347.3 224.6C345.1 220 341.8 216 337.6 213.1L338.2 212.3C342.5 215.4 345.9 219.5 348.2 224.2L347.3 224.6Z" fill="#FF9F9F"/>
<path d="M320.1 210C304.9 210 292.5 222.3 292.5 237.6C292.5 252.8 304.8 265.2 320.1 265.2C335.3 265.2 347.7 252.9 347.7 237.6C347.7 222.3 335.3 210 320.1 210ZM320.1 261.5C306.8 261.5 296.1 250.8 296.1 237.5C296.1 224.2 306.8 213.5 320.1 213.5C333.4 213.5 344.1 224.2 344.1 237.5C344.1 250.8 333.4 261.5 320.1 261.5Z" fill="#FF9F9F"/>
<path opacity="0.8" d="M320.1 261.5C333.355 261.5 344.1 250.755 344.1 237.5C344.1 224.245 333.355 213.5 320.1 213.5C306.846 213.5 296.1 224.245 296.1 237.5C296.1 250.755 306.846 261.5 320.1 261.5Z" fill="#F2868B"/>
<path d="M316.4 252.7L302.3 238.6L305.8 235.1L316.4 245.6L334.4 227.6L337.9 231.2L316.4 252.7Z" fill="white"/>
</g>
<defs>
<clipPath id="clip0_1_1900">
<rect width="500" height="372.6" fill="white"/>
</clipPath>
</defs>
</svg>
