<svg width="28" height="28" viewBox="0 0 28 28" fill="none" xmlns="http://www.w3.org/2000/svg">
<path d="M4.66659 23.3332C4.02492 23.3332 3.47542 23.1045 3.01809 22.6472C2.56075 22.1898 2.33248 21.6407 2.33325 20.9998V6.99984C2.33325 6.35817 2.56192 5.80867 3.01925 5.35134C3.47659 4.89401 4.0257 4.66573 4.66659 4.66651H23.3333C23.9749 4.66651 24.5244 4.89517 24.9818 5.35251C25.4391 5.80984 25.6674 6.35895 25.6666 6.99984V20.9998C25.6666 21.6415 25.4379 22.191 24.9806 22.6483C24.5233 23.1057 23.9741 23.334 23.3333 23.3332H4.66659ZM13.9999 15.1665L4.66659 9.33317V20.9998H23.3333V9.33317L13.9999 15.1665ZM13.9999 12.8332L23.3333 6.99984H4.66659L13.9999 12.8332ZM4.66659 9.33317V6.99984V20.9998V9.33317Z" fill="white"/>
</svg>
