<svg width="28" height="28" viewBox="0 0 28 28" fill="none" xmlns="http://www.w3.org/2000/svg">
<path d="M6.30547 11.2631H9.55117V21.7029H6.30547V11.2631ZM7.92969 9.83574C8.96602 9.83574 9.81094 8.99355 9.81094 7.95449C9.81094 7.70744 9.76228 7.46281 9.66774 7.23457C9.57319 7.00632 9.43462 6.79894 9.25993 6.62425C9.08524 6.44956 8.87785 6.31098 8.64961 6.21644C8.42137 6.1219 8.17674 6.07324 7.92969 6.07324C7.68264 6.07324 7.43801 6.1219 7.20976 6.21644C6.98152 6.31098 6.77413 6.44956 6.59944 6.62425C6.42475 6.79894 6.28618 7.00632 6.19164 7.23457C6.0971 7.46281 6.04844 7.70744 6.04844 7.95449C6.0457 8.99355 6.88789 9.83574 7.92969 9.83574ZM14.8285 16.5377C14.8285 15.176 15.0883 13.858 16.7754 13.858C18.4379 13.858 18.4625 15.4139 18.4625 16.6252V21.7029H21.7055V15.9771C21.7055 13.1662 21.0984 11.0033 17.8145 11.0033C16.2367 11.0033 15.1785 11.8701 14.7438 12.6904H14.7V11.2631H11.5855V21.7029H14.8285V16.5377Z" fill="white"/>
</svg>
