<svg width="28" height="28" viewBox="0 0 28 28" fill="none" xmlns="http://www.w3.org/2000/svg">
<path d="M14 4C11.2862 4 10.945 4.0125 9.87875 4.06C8.8125 4.11 8.08625 4.2775 7.45 4.525C6.78262 4.77602 6.17811 5.16978 5.67875 5.67875C5.1701 6.17837 4.77638 6.7828 4.525 7.45C4.2775 8.085 4.10875 8.8125 4.06 9.875C4.0125 10.9437 4 11.2838 4 14.0013C4 16.7163 4.0125 17.0563 4.06 18.1225C4.11 19.1875 4.2775 19.9137 4.525 20.55C4.78125 21.2075 5.1225 21.765 5.67875 22.3212C6.23375 22.8775 6.79125 23.22 7.44875 23.475C8.08625 23.7225 8.81125 23.8912 9.87625 23.94C10.9438 23.9875 11.2837 24 14 24C16.7163 24 17.055 23.9875 18.1225 23.94C19.1863 23.89 19.915 23.7225 20.5513 23.475C21.2182 23.2239 21.8223 22.8301 22.3212 22.3212C22.8775 21.765 23.2187 21.2075 23.475 20.55C23.7212 19.9137 23.89 19.1875 23.94 18.1225C23.9875 17.0563 24 16.7163 24 14C24 11.2837 23.9875 10.9438 23.94 9.87625C23.89 8.8125 23.7212 8.085 23.475 7.45C23.2237 6.78278 22.8299 6.17834 22.3212 5.67875C21.822 5.16959 21.2175 4.77581 20.55 4.525C19.9125 4.2775 19.185 4.10875 18.1212 4.06C17.0537 4.0125 16.715 4 13.9975 4H14.0013H14ZM13.1037 5.8025H14.0013C16.6713 5.8025 16.9875 5.81125 18.0412 5.86C19.0162 5.90375 19.5462 6.0675 19.8987 6.20375C20.365 6.385 20.6987 6.6025 21.0487 6.9525C21.3987 7.3025 21.615 7.635 21.7963 8.1025C21.9338 8.45375 22.0963 8.98375 22.14 9.95875C22.1888 11.0125 22.1988 11.3288 22.1988 13.9975C22.1988 16.6663 22.1888 16.9837 22.14 18.0375C22.0963 19.0125 21.9325 19.5413 21.7963 19.8938C21.6359 20.3279 21.38 20.7205 21.0475 21.0425C20.6975 21.3925 20.365 21.6088 19.8975 21.79C19.5475 21.9275 19.0175 22.09 18.0412 22.135C16.9875 22.1825 16.6713 22.1938 14.0013 22.1938C11.3313 22.1938 11.0138 22.1825 9.96 22.135C8.985 22.09 8.45625 21.9275 8.10375 21.79C7.66937 21.6299 7.27641 21.3745 6.95375 21.0425C6.62094 20.72 6.36465 20.3271 6.20375 19.8925C6.0675 19.5412 5.90375 19.0113 5.86 18.0363C5.8125 16.9825 5.8025 16.6662 5.8025 13.995C5.8025 11.325 5.8125 11.01 5.86 9.95625C5.905 8.98125 6.0675 8.45125 6.205 8.09875C6.38625 7.6325 6.60375 7.29875 6.95375 6.94875C7.30375 6.59875 7.63625 6.3825 8.10375 6.20125C8.45625 6.06375 8.985 5.90125 9.96 5.85625C10.8825 5.81375 11.24 5.80125 13.1037 5.8V5.8025ZM19.3387 7.4625C19.1812 7.4625 19.0251 7.49354 18.8795 7.55384C18.7339 7.61415 18.6017 7.70254 18.4902 7.81397C18.3788 7.9254 18.2904 8.05769 18.2301 8.20328C18.1698 8.34887 18.1387 8.50491 18.1387 8.6625C18.1387 8.82009 18.1698 8.97613 18.2301 9.12172C18.2904 9.26731 18.3788 9.3996 18.4902 9.51103C18.6017 9.62246 18.7339 9.71085 18.8795 9.77116C19.0251 9.83146 19.1812 9.8625 19.3387 9.8625C19.657 9.8625 19.9622 9.73607 20.1873 9.51103C20.4123 9.28598 20.5387 8.98076 20.5387 8.6625C20.5387 8.34424 20.4123 8.03902 20.1873 7.81397C19.9622 7.58893 19.657 7.4625 19.3387 7.4625ZM14.0013 8.865C13.3201 8.85437 12.6436 8.97936 12.0112 9.23268C11.3788 9.486 10.8031 9.86259 10.3177 10.3405C9.83223 10.8185 9.44671 11.3882 9.18355 12.0166C8.9204 12.6449 8.78488 13.3194 8.78488 14.0006C8.78488 14.6819 8.9204 15.3563 9.18355 15.9847C9.44671 16.613 9.83223 17.1828 10.3177 17.6607C10.8031 18.1387 11.3788 18.5153 12.0112 18.7686C12.6436 19.0219 13.3201 19.1469 14.0013 19.1363C15.3494 19.1152 16.6353 18.5649 17.5812 17.6041C18.5272 16.6432 19.0574 15.349 19.0574 14.0006C19.0574 12.6523 18.5272 11.358 17.5812 10.3972C16.6353 9.43636 15.3494 8.88603 14.0013 8.865ZM14.0013 10.6663C14.8854 10.6663 15.7334 11.0175 16.3586 11.6427C16.9838 12.2679 17.335 13.1158 17.335 14C17.335 14.8842 16.9838 15.7321 16.3586 16.3573C15.7334 16.9825 14.8854 17.3337 14.0013 17.3337C13.1171 17.3337 12.2691 16.9825 11.6439 16.3573C11.0187 15.7321 10.6675 14.8842 10.6675 14C10.6675 13.1158 11.0187 12.2679 11.6439 11.6427C12.2691 11.0175 13.1171 10.6663 14.0013 10.6663Z" fill="white"/>
</svg>
