<svg width="28" height="28" viewBox="0 0 28 28" fill="none" xmlns="http://www.w3.org/2000/svg">
<path d="M22 10.5152C21.4112 10.7712 20.7792 10.9472 20.1152 11.024C20.7936 10.624 21.312 9.99041 21.5584 9.23682C20.9119 9.61356 20.2066 9.87861 19.472 10.0208C19.163 9.69693 18.7912 9.43939 18.3794 9.26388C17.9676 9.08838 17.5244 8.9986 17.0768 9.00002C15.264 9.00002 13.7952 10.448 13.7952 12.232C13.7952 12.4848 13.824 12.7312 13.88 12.968C12.5797 12.9063 11.3066 12.5742 10.1418 11.9929C8.97708 11.4116 7.94628 10.5939 7.1152 9.59201C6.8233 10.0834 6.66961 10.6445 6.6704 11.216C6.6704 12.336 7.2512 13.328 8.13119 13.9056C7.61031 13.8893 7.10057 13.7506 6.6432 13.5008V13.5408C6.64814 14.2919 6.91328 15.0181 7.39346 15.5958C7.87365 16.1734 8.5392 16.5667 9.27679 16.7088C8.79256 16.8368 8.2859 16.8554 7.7936 16.7632C8.0082 17.4094 8.41867 17.9727 8.96803 18.375C9.51739 18.7773 10.1784 18.9985 10.8592 19.008C9.69113 19.9081 8.25702 20.3944 6.7824 20.3904C6.5184 20.3904 6.2576 20.3744 6 20.3456C7.50475 21.298 9.24953 21.8025 11.0304 21.8C17.0688 21.8 20.3696 16.8752 20.3696 12.6032L20.3584 12.184C21.002 11.7317 21.5582 11.1662 22 10.5152Z" fill="white"/>
</svg>
