<svg width="110" height="110" viewBox="0 0 110 110" fill="none" xmlns="http://www.w3.org/2000/svg">
<g clip-path="url(#clip0_92_92)">
<path d="M45.8333 24.4445H73.3333V30.5556H45.8333V24.4445Z" fill="#C42128"/>
<path d="M45.8333 36.6666H73.3333V42.7777H45.8333V36.6666Z" fill="#C42128"/>
<path d="M45.8333 48.8889H73.3333V55H45.8333V48.8889Z" fill="#C42128"/>
<path d="M45.8333 61.1111H73.3333V67.2222H45.8333V61.1111Z" fill="#C42128"/>
<path d="M45.8333 73.3334H73.3333V79.4445H45.8333V73.3334Z" fill="#C42128"/>
<path d="M33.6111 24.4445H39.7222V30.5556H33.6111V24.4445Z" fill="#C42128"/>
<path d="M33.6111 36.6666H39.7222V42.7777H33.6111V36.6666Z" fill="#C42128"/>
<path d="M33.6111 48.8889H39.7222V55H33.6111V48.8889Z" fill="#C42128"/>
<path d="M33.6111 61.1111H39.7222V67.2222H33.6111V61.1111Z" fill="#C42128"/>
<path d="M33.6111 73.3334H39.7222V79.4445H33.6111V73.3334Z" fill="#C42128"/>
<path d="M85.5555 6.11108H24.4444C22.8236 6.11108 21.2692 6.75493 20.1232 7.90099C18.9771 9.04704 18.3333 10.6014 18.3333 12.2222V97.7777C18.3333 99.3985 18.9771 100.953 20.1232 102.099C21.2692 103.245 22.8236 103.889 24.4444 103.889H85.5555C87.1762 103.889 88.7306 103.245 89.8767 102.099C91.0227 100.953 91.6666 99.3985 91.6666 97.7777V12.2222C91.6666 10.6014 91.0227 9.04704 89.8767 7.90099C88.7306 6.75493 87.1762 6.11108 85.5555 6.11108ZM85.5555 97.7777H24.4444V12.2222H85.5555V97.7777Z" fill="#C42128"/>
</g>
<defs>
<clipPath id="clip0_92_92">
<rect width="110" height="110" fill="white"/>
</clipPath>
</defs>
</svg>
