<svg width="38" height="38" viewBox="0 0 38 38" fill="none" xmlns="http://www.w3.org/2000/svg">
<path d="M19 26.9167C19.8399 26.9167 20.6453 26.583 21.2392 25.9892C21.8331 25.3953 22.1667 24.5899 22.1667 23.75C22.1667 22.9102 21.8331 22.1047 21.2392 21.5108C20.6453 20.917 19.8399 20.5833 19 20.5833C18.1602 20.5833 17.3547 20.917 16.7609 21.5108C16.167 22.1047 15.8334 22.9102 15.8334 23.75C15.8334 24.5899 16.167 25.3953 16.7609 25.9892C17.3547 26.583 18.1602 26.9167 19 26.9167ZM28.5 12.6667C29.3399 12.6667 30.1453 13.0003 30.7392 13.5942C31.3331 14.188 31.6667 14.9935 31.6667 15.8333V31.6667C31.6667 32.5065 31.3331 33.312 30.7392 33.9058C30.1453 34.4997 29.3399 34.8333 28.5 34.8333H9.50004C8.66019 34.8333 7.85473 34.4997 7.26087 33.9058C6.667 33.312 6.33337 32.5065 6.33337 31.6667V15.8333C6.33337 14.9935 6.667 14.188 7.26087 13.5942C7.85473 13.0003 8.66019 12.6667 9.50004 12.6667H11.0834V9.50001C11.0834 7.40038 11.9174 5.38674 13.4021 3.90208C14.8868 2.41742 16.9004 1.58334 19 1.58334C20.0397 1.58334 21.0691 1.78811 22.0296 2.18596C22.9901 2.58381 23.8628 3.16695 24.598 3.90208C25.3331 4.63721 25.9162 5.50994 26.3141 6.47043C26.7119 7.43093 26.9167 8.46038 26.9167 9.50001V12.6667H28.5ZM19 4.75001C17.7403 4.75001 16.5321 5.25046 15.6413 6.14125C14.7505 7.03205 14.25 8.24023 14.25 9.50001V12.6667H23.75V9.50001C23.75 8.24023 23.2496 7.03205 22.3588 6.14125C21.468 5.25046 20.2598 4.75001 19 4.75001Z" fill="#C42128"/>
</svg>
