<svg width="38" height="38" viewBox="0 0 38 38" fill="none" xmlns="http://www.w3.org/2000/svg">
<path d="M6.33333 31.6667C5.46249 31.6667 4.71674 31.3563 4.09608 30.7357C3.47541 30.115 3.1656 29.3698 3.16666 28.5V9.50001C3.16666 8.62918 3.47699 7.88343 4.09766 7.26276C4.71833 6.6421 5.46355 6.33229 6.33333 6.33335H31.6667C32.5375 6.33335 33.2832 6.64368 33.9039 7.26435C34.5246 7.88501 34.8344 8.63024 34.8333 9.50001V28.5C34.8333 29.3708 34.523 30.1166 33.9023 30.7373C33.2817 31.3579 32.5364 31.6677 31.6667 31.6667H6.33333ZM19 20.5833L31.6667 12.6667V9.50001L19 17.4167L6.33333 9.50001V12.6667L19 20.5833Z" fill="#C42128"/>
</svg>
