<svg width="110" height="110" viewBox="0 0 110 110" fill="none" xmlns="http://www.w3.org/2000/svg">
<path d="M50.4396 9.16663L83.8888 19.6166C84.8217 19.9079 85.6371 20.4897 86.2159 21.2771C86.7947 22.0646 87.1067 23.0164 87.1063 23.9937V32.0833H96.2729C97.4885 32.0833 98.6543 32.5662 99.5139 33.4257C100.373 34.2853 100.856 35.4511 100.856 36.6666V45.8333H41.2729V36.6666C41.2729 35.4511 41.7558 34.2853 42.6154 33.4257C43.4749 32.5662 44.6407 32.0833 45.8563 32.0833H77.9396V27.3625L50.4396 18.7641L22.9396 27.3625V61.2975C22.939 64.1035 23.5824 66.8722 24.8205 69.3904C26.0585 71.9086 27.858 74.109 30.0804 75.822L30.9467 76.4454L50.4396 89.737L67.7738 77.9166H45.8563C44.6407 77.9166 43.4749 77.4337 42.6154 76.5742C41.7558 75.7147 41.2729 74.5489 41.2729 73.3333V55H100.856V73.3333C100.856 74.5489 100.373 75.7147 99.5139 76.5742C98.6543 77.4337 97.4885 77.9166 96.2729 77.9166L81.5146 77.9212C79.7409 80.2587 77.5867 82.3212 75.0979 84.017L50.4396 100.833L25.7813 84.0216C22.0803 81.4983 19.0518 78.1091 16.959 74.1487C14.8662 70.1884 13.7725 65.7768 13.7729 61.2975V23.9937C13.7735 23.0172 14.0859 22.0664 14.6647 21.2799C15.2435 20.4933 16.0583 19.9122 16.9904 19.6212L50.4396 9.16663Z" fill="#C42128"/>
</svg>
