<svg width="110" height="110" viewBox="0 0 110 110" fill="none" xmlns="http://www.w3.org/2000/svg">
<path d="M44 16.6214C44.2629 14.7475 45.2544 13.0528 46.7591 11.9054C48.2638 10.7579 50.1604 10.2502 52.0371 10.4925C53.9138 10.7348 55.6193 11.7075 56.7832 13.1995C57.9472 14.6915 58.4757 16.5823 58.2542 18.4616M86.2629 57.4062C86.7659 58.4259 86.9988 59.5577 86.9394 60.6931C86.8801 61.8286 86.5303 62.9299 85.9237 63.8916C85.2929 64.9837 84.3857 65.8906 83.2933 66.5211C82.201 67.1516 80.962 67.4835 79.7007 67.4835C78.4395 67.4835 77.2004 67.1516 76.1081 66.5211C75.0157 65.8906 74.1086 64.9837 73.4777 63.8916M71.5 13.3787C72.6069 11.8524 74.2692 10.8222 76.1286 10.5102C77.988 10.1983 79.8955 10.6294 81.4399 11.7109C82.9844 12.7923 84.042 14.4373 84.3847 16.2913C84.7275 18.1453 84.328 20.0597 83.2723 21.6218M88.7792 82.2891C86.9997 87.104 83.86 91.2984 79.7417 94.3627C75.6234 97.4269 70.7038 99.229 65.5806 99.5499C60.3389 100.07 55.0569 99.0987 50.3429 96.7483C45.6289 94.3979 41.6746 90.7638 38.9355 86.2645C36.1964 81.7653 34.7838 76.5838 34.8604 71.3169C34.937 66.05 36.4997 60.9118 39.3685 56.4941" stroke="#C42128" stroke-width="4" stroke-linecap="round" stroke-linejoin="round"/>
<path d="M68.1543 44.275C72.0025 44.8553 75.6553 46.3508 78.8056 48.6358C81.9559 50.9208 84.5118 53.9285 86.2585 57.4063" stroke="#C42128" stroke-width="4" stroke-linecap="round" stroke-linejoin="round"/>
<path d="M88.7812 82.2892C89.1497 81.083 89.1943 79.801 88.9104 78.5721C88.6266 77.3432 88.0243 76.2106 87.1641 75.2882C86.3039 74.3657 85.2161 73.6859 84.01 73.3171C82.8038 72.9482 81.5219 72.9032 80.2929 73.1867C79.0369 73.5199 77.8866 74.1678 76.9507 75.0692C76.0148 75.9706 75.3242 77.0958 74.9441 78.3384C72.3568 83.8842 66.6323 85.9444 60.6304 84.7505C57.713 84.1711 55.0745 82.6294 53.1376 80.3722C51.2007 78.115 50.0774 75.273 49.9477 72.3015C49.818 69.33 50.6894 66.401 52.4223 63.9836C54.1553 61.5663 56.6494 59.8005 59.5052 58.9692C65.381 57.2596 70.4158 58.5934 73.4752 63.8917M71.4998 13.3788L39.3706 56.4919M68.1539 44.275L83.2698 21.6219M35.3487 66.5065L43.9998 16.6215M55.7446 34.5194L58.2539 18.4594M21.5346 43.3309C21.1377 42.4685 20.9157 41.5361 20.8812 40.5875C20.8467 39.6389 21.0005 38.6928 21.3337 37.804C21.6669 36.9151 22.1729 36.1011 22.8225 35.4088C23.4721 34.7166 24.2523 34.16 25.1182 33.771C25.9841 33.382 26.9185 33.1684 27.8674 33.1426C28.8163 33.1167 29.7609 33.2791 30.6467 33.6204C31.5325 33.9616 32.3419 34.475 33.0282 35.1308C33.7145 35.7866 34.2641 36.5719 34.6452 37.4413L38.706 47.1534M36.231 80.2313L21.5368 43.3332" stroke="#C42128" stroke-width="4" stroke-linecap="round" stroke-linejoin="round"/>
</svg>
