<svg width="28" height="28" viewBox="0 0 28 28" fill="none" xmlns="http://www.w3.org/2000/svg">
<path d="M4.47195 4.66671H9.71028L11.3984 8.88771L8.68595 10.696C8.52621 10.8026 8.39525 10.947 8.30469 11.1163C8.21412 11.2856 8.16675 11.4747 8.16678 11.6667C8.17028 11.7764 8.16678 11.6679 8.16678 11.6679V11.6924C8.16747 11.7445 8.16981 11.7967 8.17378 11.8487C8.18078 11.9444 8.19245 12.0739 8.21462 12.2337C8.26012 12.5487 8.34762 12.9827 8.51795 13.4937C8.86095 14.5204 9.53295 15.8492 10.8419 17.1582C12.1509 18.4672 13.4798 19.1392 14.5053 19.4822C15.0174 19.6525 15.4503 19.7389 15.7676 19.7855C15.9467 19.8106 16.127 19.8261 16.3078 19.8322L16.3229 19.8334H16.3323C16.3323 19.8334 16.4629 19.8264 16.3334 19.8334C16.5501 19.8333 16.7624 19.7728 16.9466 19.6589C17.1308 19.545 17.2796 19.382 17.3764 19.1882L18.1581 17.6249L23.3334 18.4882V23.5282C20.8706 23.884 14.2183 24.2352 8.99162 19.0085C3.76495 13.7819 4.11495 7.12837 4.47195 4.66671ZM10.5853 12.2337L12.6934 10.829C13.1388 10.532 13.4685 10.0908 13.6272 9.5795C13.7858 9.0682 13.7639 8.51789 13.5649 8.02087L11.8768 3.79987C11.7035 3.36693 11.4046 2.99582 11.0184 2.73443C10.6322 2.47303 10.1766 2.33334 9.71028 2.33337H4.41128C3.35078 2.33337 2.35328 3.06954 2.17945 4.21987C1.78278 6.83554 1.24495 14.5612 7.34195 20.6582C13.4389 26.7552 21.1646 26.2162 23.7803 25.8207C24.9306 25.6457 25.6668 24.6494 25.6668 23.5889V18.4882C25.6668 17.9359 25.471 17.4014 25.114 16.9799C24.757 16.5584 24.2621 16.2772 23.7173 16.1864L18.5419 15.3242C18.0497 15.242 17.5441 15.3199 17.0994 15.5462C16.6546 15.7726 16.2942 16.1356 16.0709 16.5819L15.6673 17.3904C15.5245 17.3552 15.3833 17.3144 15.2438 17.2679C14.5204 17.0275 13.5159 16.5329 12.4916 15.5085C11.4673 14.4842 10.9726 13.4797 10.7323 12.7552C10.6749 12.5839 10.6262 12.4099 10.5864 12.2337H10.5853Z" fill="white"/>
</svg>
