<svg width="484" height="328" viewBox="0 0 484 328" fill="none" xmlns="http://www.w3.org/2000/svg">
<path d="M109.776 74.6795C109.776 74.6795 114.689 54.2654 143.331 50.1863C171.974 46.1072 176.072 70.6004 181.799 73.8674C187.526 77.1344 190.801 68.1548 199.802 68.9669C208.804 69.779 213.717 77.1344 217.806 80.4014C221.895 83.6684 229.268 73.8674 234.995 75.5009C240.722 77.1344 245.634 85.3019 245.634 85.3019H79.4868C79.4868 85.3019 85.2135 76.3223 93.4011 73.0553C101.598 69.779 104.873 74.6795 109.776 74.6795Z" stroke="#263238" stroke-miterlimit="10" stroke-linecap="round" stroke-linejoin="round"/>
<path d="M385.61 135.968C385.61 135.968 389.128 121.341 409.667 118.41C430.206 115.479 433.135 133.037 437.243 135.38C441.351 137.723 443.7 131.282 450.147 131.87C456.603 132.458 460.122 137.723 463.05 140.066C465.979 142.409 471.266 135.38 475.374 136.556C479.482 137.732 483 143.575 483 143.575H363.901C363.901 143.575 368.009 137.135 373.876 134.801C379.743 132.458 382.091 135.968 385.61 135.968Z" stroke="#263238" stroke-miterlimit="10" stroke-linecap="round" stroke-linejoin="round"/>
<path d="M332.067 12.335C332.067 12.335 334.294 3.066 347.31 1.20848C360.317 -0.649048 362.179 10.4774 364.78 11.9616C367.382 13.4457 368.869 9.36664 372.959 9.74002C377.048 10.1134 379.275 13.4457 381.137 14.9299C382.999 16.414 386.339 11.9616 388.941 12.7083C391.542 13.4457 393.769 17.1608 393.769 17.1608H318.303C318.303 17.1608 320.904 13.0817 324.619 11.5975C328.343 10.1041 329.831 12.335 332.067 12.335Z" stroke="#263238" stroke-miterlimit="10" stroke-linecap="round" stroke-linejoin="round"/>
<path d="M173.312 129.359C173.312 129.359 168.989 128.285 167.698 128.715C166.407 129.144 168.559 130.675 168.559 130.675C168.559 130.675 167.483 131.3 166.837 132.812C166.192 134.325 168.989 133.671 168.989 133.671C168.989 133.671 168.128 134.754 168.999 135.613C169.86 136.471 173.752 132.168 173.752 132.168C173.752 132.168 176.559 133.895 179.151 133.681C181.743 133.466 183.259 132.822 184.981 130.236C186.712 127.651 188.003 126.362 188.003 126.362L189.734 125.718L187.142 124.206C187.142 124.206 184.981 122.265 182.819 122.479C180.658 122.694 179.797 123.338 179.797 123.338C179.797 123.338 178.506 119.894 176.559 118.596C174.613 117.299 168.568 115.581 166.622 114.499C164.676 113.425 165.106 115.143 165.761 116.225C166.416 117.308 168.353 118.167 169.214 118.596C170.075 119.026 164.676 119.24 165.546 120.323C166.407 121.397 169.654 121.835 169.654 121.835C169.654 121.835 166.631 122.909 167.277 123.777C167.923 124.645 170.515 124.636 170.515 124.636C170.515 124.636 169.654 126.792 170.945 126.792C172.236 126.792 172.236 126.792 172.236 126.792C172.236 126.792 171.591 129.788 173.312 129.359Z" fill="#DADADA" stroke="#263238" stroke-miterlimit="10" stroke-linecap="round" stroke-linejoin="round"/>
<path d="M179.797 123.329C179.797 123.329 181.528 119.885 180.658 117.728C179.797 115.572 171.806 109.972 172.021 112.128C172.236 114.284 174.398 115.572 174.398 115.572C174.398 115.572 171.16 114.499 171.16 115.357C171.16 116.216 171.16 116.216 171.16 116.216C171.16 116.216 174.828 117.075 176.559 118.587C178.281 120.09 179.797 123.329 179.797 123.329Z" fill="#263238" stroke="#263238" stroke-miterlimit="10" stroke-linecap="round" stroke-linejoin="round"/>
<path d="M184.85 125.644C184.493 125.644 184.204 125.356 184.204 125C184.204 124.644 184.493 124.356 184.85 124.356C185.207 124.356 185.496 124.644 185.496 125C185.496 125.356 185.207 125.644 184.85 125.644Z" fill="#263238"/>
<path d="M176.176 131.59C176.569 132.897 178.627 133.438 180.779 132.803C182.932 132.169 184.363 130.591 183.97 129.284C183.577 127.977 181.519 127.436 179.366 128.071C177.214 128.706 175.783 130.283 176.176 131.59Z" fill="white" stroke="#263238" stroke-width="0.5" stroke-miterlimit="10" stroke-linecap="round" stroke-linejoin="round"/>
<path d="M388.155 74.1377C388.155 74.1377 392.478 73.0642 393.769 73.4936C395.06 73.923 392.908 75.4538 392.908 75.4538C392.908 75.4538 393.984 76.0792 394.63 77.5914C395.275 79.1035 392.478 78.4501 392.478 78.4501C392.478 78.4501 393.329 79.5329 392.468 80.3917C391.607 81.2504 387.715 76.9473 387.715 76.9473C387.715 76.9473 384.908 78.6741 382.316 78.4595C379.724 78.2448 378.208 77.6007 376.486 75.0151C374.755 72.4295 373.464 71.1414 373.464 71.1414L371.733 70.4973L374.325 68.9851C374.325 68.9851 376.486 67.0436 378.648 67.2583C380.809 67.473 381.67 68.1171 381.67 68.1171C381.67 68.1171 382.961 64.6727 384.908 63.3752C386.854 62.0778 392.899 60.3603 394.845 59.2775C396.791 58.2041 396.361 59.9216 395.706 61.0043C395.06 62.0778 393.114 62.9459 392.253 63.3752C391.392 63.8046 396.791 64.0193 395.921 65.1021C395.06 66.1755 391.813 66.6142 391.813 66.6142C391.813 66.6142 394.836 67.6877 394.19 68.5558C393.544 69.4145 390.952 69.4145 390.952 69.4145C390.952 69.4145 391.813 71.5708 390.522 71.5708C389.221 71.5708 389.221 71.5708 389.221 71.5708C389.221 71.5708 389.876 74.5671 388.155 74.1377Z" fill="#DADADA" stroke="#263238" stroke-miterlimit="10" stroke-linecap="round" stroke-linejoin="round"/>
<path d="M381.67 68.0986C381.67 68.0986 379.939 64.6542 380.809 62.498C381.67 60.3418 389.661 54.7412 389.446 56.8974C389.231 59.0537 387.069 60.3418 387.069 60.3418C387.069 60.3418 390.307 59.2684 390.307 60.1271C390.307 60.9859 390.307 60.9859 390.307 60.9859C390.307 60.9859 386.639 61.8446 384.908 63.3568C383.186 64.8689 381.67 68.0986 381.67 68.0986Z" fill="#263238" stroke="#263238" stroke-miterlimit="10" stroke-linecap="round" stroke-linejoin="round"/>
<path d="M377.263 69.779C377.263 70.1337 376.973 70.423 376.617 70.423C376.261 70.423 375.971 70.1337 375.971 69.779C375.971 69.4243 376.261 69.1349 376.617 69.1349C376.973 69.1349 377.263 69.4243 377.263 69.779Z" fill="#263238"/>
<path d="M385.292 76.3687C384.899 77.6755 382.84 78.2169 380.688 77.5822C378.536 76.9475 377.104 75.37 377.497 74.0632C377.89 72.7564 379.949 72.215 382.101 72.8497C384.253 73.4845 385.685 75.0619 385.292 76.3687Z" fill="white" stroke="#263238" stroke-width="0.5" stroke-miterlimit="10" stroke-linecap="round" stroke-linejoin="round"/>
<path d="M399.749 234.604C399.749 234.604 408.292 221.06 423.769 213.051C439.246 205.042 445.843 197.136 437.814 197.612C428.064 198.182 405.999 205.901 395.968 233.064C391.636 244.778 399.749 234.604 399.749 234.604Z" fill="#DADADA" stroke="#263238" stroke-miterlimit="10" stroke-linecap="round" stroke-linejoin="round"/>
<path d="M400.263 231.057C400.263 231.057 408.002 215.618 422.618 208.178" stroke="#263238" stroke-miterlimit="10" stroke-linecap="round" stroke-linejoin="round"/>
<path d="M390.448 243.966C390.448 243.966 395.332 230.347 392.384 214.899C389.446 199.451 391.393 190.359 395.538 196.324C400.572 203.548 407.403 223.505 393.648 245.795C387.725 255.41 390.448 243.966 390.448 243.966Z" fill="#DADADA" stroke="#263238" stroke-miterlimit="10" stroke-linecap="round" stroke-linejoin="round"/>
<path d="M392.674 241.623C392.674 241.623 399.355 227.51 396.483 212.995" stroke="#263238" stroke-miterlimit="10" stroke-linecap="round" stroke-linejoin="round"/>
<path d="M399.122 227.79C399.122 227.79 404.006 214.171 401.059 198.723C398.121 183.274 400.067 174.183 404.212 180.148C409.246 187.372 416.077 207.329 402.322 229.619C396.399 239.224 399.122 227.79 399.122 227.79Z" fill="#DADADA" stroke="#263238" stroke-miterlimit="10" stroke-linecap="round" stroke-linejoin="round"/>
<path d="M400.264 231.057C400.264 231.057 408.03 211.334 405.157 196.819" stroke="#263238" stroke-miterlimit="10" stroke-linecap="round" stroke-linejoin="round"/>
<path d="M204.818 217.727C204.818 217.727 196.275 204.183 180.798 196.175C165.321 188.166 158.724 180.26 166.753 180.736C176.503 181.305 198.567 189.025 208.598 216.187C212.931 227.911 204.818 217.727 204.818 217.727Z" fill="#DADADA" stroke="#263238" stroke-miterlimit="10" stroke-linecap="round" stroke-linejoin="round"/>
<path d="M204.303 214.19C204.303 214.19 196.565 198.751 181.949 191.312" stroke="#263238" stroke-miterlimit="10" stroke-linecap="round" stroke-linejoin="round"/>
<path d="M214.129 227.089C214.129 227.089 209.244 213.47 212.192 198.022C215.13 182.574 213.184 173.482 209.038 179.447C204.004 186.672 197.173 206.628 210.928 228.919C216.852 238.533 214.129 227.089 214.129 227.089Z" fill="#DADADA" stroke="#263238" stroke-miterlimit="10" stroke-linecap="round" stroke-linejoin="round"/>
<path d="M211.892 224.756C211.892 224.756 205.211 210.643 208.084 196.128" stroke="#263238" stroke-miterlimit="10" stroke-linecap="round" stroke-linejoin="round"/>
<path d="M205.454 210.913C205.454 210.913 200.57 197.294 203.517 181.846C206.456 166.398 204.509 157.306 200.364 163.271C195.33 170.496 188.499 190.452 202.254 212.743C208.177 222.357 205.454 210.913 205.454 210.913Z" fill="#DADADA" stroke="#263238" stroke-miterlimit="10" stroke-linecap="round" stroke-linejoin="round"/>
<path d="M204.303 214.189C204.303 214.189 196.537 194.466 199.409 179.951" stroke="#263238" stroke-miterlimit="10" stroke-linecap="round" stroke-linejoin="round"/>
<path d="M200.926 169.421H289.876L339.638 90.4906H250.688L200.926 169.421Z" fill="#263238" stroke="#263238" stroke-miterlimit="10" stroke-linecap="round" stroke-linejoin="round"/>
<path d="M302.246 166.714H393.414V247.045H302.246V166.714Z" fill="#C7C7C7" stroke="#263238" stroke-miterlimit="10" stroke-linecap="round" stroke-linejoin="round"/>
<path d="M211.088 247.045H302.255V166.714L255.909 93.1976L211.088 166.714V247.045Z" fill="white" stroke="#263238" stroke-miterlimit="10" stroke-linecap="round" stroke-linejoin="round"/>
<path d="M282.502 181.108H291.616V208.392H282.502V181.108Z" fill="#C7C7C7" stroke="#263238" stroke-miterlimit="10" stroke-linecap="round" stroke-linejoin="round"/>
<path d="M273.388 181.107H282.502V208.392H273.388V181.107Z" fill="#263238" stroke="#263238" stroke-miterlimit="10" stroke-linecap="round" stroke-linejoin="round"/>
<path d="M264.265 181.107H273.379V208.392H264.265V181.107Z" fill="#C7C7C7" stroke="#263238" stroke-miterlimit="10" stroke-linecap="round" stroke-linejoin="round"/>
<path d="M324.282 181.108H331.88V208.392H324.282V181.108Z" fill="#919191" stroke="#263238" stroke-miterlimit="10" stroke-linecap="round" stroke-linejoin="round"/>
<path d="M316.684 181.107H324.282V208.392H316.684V181.107Z" fill="#263238" stroke="#263238" stroke-miterlimit="10" stroke-linecap="round" stroke-linejoin="round"/>
<path d="M309.086 181.107H316.684V208.392H309.086V181.107Z" fill="#919191" stroke="#263238" stroke-miterlimit="10" stroke-linecap="round" stroke-linejoin="round"/>
<path d="M380.501 181.108H388.099V208.392H380.501V181.108Z" fill="#919191" stroke="#263238" stroke-miterlimit="10" stroke-linecap="round" stroke-linejoin="round"/>
<path d="M372.902 181.107H380.5V208.392H372.902V181.107Z" fill="#263238" stroke="#263238" stroke-miterlimit="10" stroke-linecap="round" stroke-linejoin="round"/>
<path d="M365.304 181.107H372.902V208.392H365.304V181.107Z" fill="#919191" stroke="#263238" stroke-miterlimit="10" stroke-linecap="round" stroke-linejoin="round"/>
<path d="M236.156 181.108H245.27V208.392H236.156V181.108Z" fill="#C7C7C7" stroke="#263238" stroke-miterlimit="10" stroke-linecap="round" stroke-linejoin="round"/>
<path d="M227.042 181.107H236.156V208.392H227.042V181.107Z" fill="#263238" stroke="#263238" stroke-miterlimit="10" stroke-linecap="round" stroke-linejoin="round"/>
<path d="M217.928 181.107H227.042V208.392H217.928V181.107Z" fill="#C7C7C7" stroke="#263238" stroke-miterlimit="10" stroke-linecap="round" stroke-linejoin="round"/>
<path d="M257.425 136.396H263.507V153.068H257.425V136.396Z" fill="#C7C7C7" stroke="#263238" stroke-miterlimit="10" stroke-linecap="round" stroke-linejoin="round"/>
<path d="M251.343 136.396H257.425V153.068H251.343V136.396Z" fill="#263238" stroke="#263238" stroke-miterlimit="10" stroke-linecap="round" stroke-linejoin="round"/>
<path d="M245.269 136.396H251.352V153.068H245.269V136.396Z" fill="#C7C7C7" stroke="#263238" stroke-miterlimit="10" stroke-linecap="round" stroke-linejoin="round"/>
<path d="M398.495 169.421H300.599L250.837 90.4906H348.733L398.495 169.421Z" fill="#DADADA" stroke="#263238" stroke-miterlimit="10" stroke-linecap="round" stroke-linejoin="round"/>
<path d="M322.064 126.139H360.719V151.659H322.064V126.139Z" fill="#C7C7C7" stroke="#263238" stroke-miterlimit="10" stroke-linecap="round" stroke-linejoin="round"/>
<path d="M322.055 126.138L295.34 107.843L322.055 151.658V126.138Z" fill="white" stroke="#263238" stroke-miterlimit="10" stroke-linecap="round" stroke-linejoin="round"/>
<path d="M363.816 127.007H323.328L295.34 107.843H335.829L363.816 127.007Z" fill="#DADADA" stroke="#263238" stroke-miterlimit="10" stroke-linecap="round" stroke-linejoin="round"/>
<path d="M345.168 131.561H351.25V148.232H345.168V131.561Z" fill="#919191" stroke="#263238" stroke-miterlimit="10" stroke-linecap="round" stroke-linejoin="round"/>
<path d="M339.095 131.561H345.177V148.232H339.095V131.561Z" fill="#263238" stroke="#263238" stroke-miterlimit="10" stroke-linecap="round" stroke-linejoin="round"/>
<path d="M333.013 131.561H339.095V148.232H333.013V131.561Z" fill="#919191" stroke="#263238" stroke-miterlimit="10" stroke-linecap="round" stroke-linejoin="round"/>
<path d="M274.399 78.5146H277.805V103.279L274.399 97.8086V78.5146Z" fill="white" stroke="#263238" stroke-miterlimit="10" stroke-linecap="round" stroke-linejoin="round"/>
<path d="M277.646 78.5146H287.695V103.279H277.646V78.5146Z" fill="#C7C7C7" stroke="#263238" stroke-miterlimit="10" stroke-linecap="round" stroke-linejoin="round"/>
<path d="M336.129 185.7H359.531V247.045H336.129V185.7Z" fill="#263238" stroke="#263238" stroke-miterlimit="10" stroke-linecap="round" stroke-linejoin="round"/>
<path d="M337.373 216.289C337.373 215.15 338.3 214.226 339.441 214.226C340.583 214.226 341.509 215.15 341.509 216.289C341.509 217.428 340.583 218.352 339.441 218.352C338.3 218.361 337.373 217.437 337.373 216.289Z" fill="white" stroke="#263238" stroke-miterlimit="10" stroke-linecap="round" stroke-linejoin="round"/>
<path d="M398.242 234.211C398.242 234.211 417.836 223.514 436.139 221.526C454.442 219.538 465.025 228.041 464.94 231.738C464.847 235.434 452.149 235.705 449.735 236.321C447.33 236.937 432.611 232.886 410.884 238.029C389.165 243.181 386.386 244.236 386.386 244.236L398.242 234.211Z" fill="white" stroke="#263238" stroke-miterlimit="10" stroke-linecap="round" stroke-linejoin="round"/>
<path d="M406.439 233.968C406.439 233.968 426.884 224.989 445.29 224.587C463.696 224.177 473.512 233.558 473.1 237.235C472.688 240.904 460.009 240.092 457.557 240.502C455.106 240.913 440.789 235.611 418.706 238.869C396.623 242.136 393.76 242.948 393.76 242.948L406.439 233.968Z" fill="white" stroke="#263238" stroke-miterlimit="10" stroke-linecap="round" stroke-linejoin="round"/>
<path d="M145.053 226.417L173.443 218.744C173.443 218.744 193.552 202.811 217.806 204.584C242.06 206.358 263.947 215.795 271.049 221.106C278.151 226.417 287.022 231.728 288.799 232.904C290.577 234.08 314.831 227.593 327.838 232.904C340.854 238.216 350.913 248.838 350.913 248.838C350.913 248.838 405.924 232.316 419.53 229.955C433.135 227.593 449.108 228.779 460.346 237.039C471.584 245.3 469.217 250.611 463.303 251.788C457.389 252.964 456.201 247.064 423.666 255.923C391.13 264.772 351.493 287.79 335.52 296.639C319.547 305.488 292.926 317.884 275.185 312.572C257.434 307.261 208.935 288.966 197.688 288.966C186.45 288.966 150.368 291.328 150.368 291.328L145.053 226.417Z" fill="white" stroke="#263238" stroke-miterlimit="10" stroke-linecap="round" stroke-linejoin="round"/>
<path d="M160.502 265.453L184.906 288.826L150.377 291.328L160.502 265.453Z" fill="#263238" stroke="#263238" stroke-miterlimit="10" stroke-linecap="round" stroke-linejoin="round"/>
<path d="M350.913 248.838C350.913 248.838 356.406 256.044 354.094 265.378C352.663 271.147 345.916 269.868 333.649 267.423C321.381 264.977 332.835 263.343 304.202 262.933C275.578 262.522 244.905 261.71 243.267 261.71" stroke="#263238" stroke-miterlimit="10" stroke-linecap="round" stroke-linejoin="round"/>
<path d="M351.119 268.86C351.119 268.86 350.576 265.135 346.59 262.83C346.59 262.83 339.787 259.311 335.511 259.311C331.234 259.311 327.707 263.829 328.961 265.341" stroke="#263238" stroke-miterlimit="10" stroke-linecap="round" stroke-linejoin="round"/>
<path d="M314.354 261.822V256.8" stroke="#263238" stroke-miterlimit="10" stroke-linecap="round" stroke-linejoin="round"/>
<path d="M311.837 252.03C311.837 252.03 311.079 254.793 311.584 259.068" stroke="#263238" stroke-miterlimit="10" stroke-linecap="round" stroke-linejoin="round"/>
<path d="M120.172 318.546H158.322C160.643 318.546 162.523 316.67 162.523 314.355V218.865C162.523 216.55 160.643 214.674 158.322 214.674H120.172V318.546Z" fill="#DADADA" stroke="#263238" stroke-miterlimit="10" stroke-linecap="round" stroke-linejoin="round"/>
<path d="M-21.0002 326.658H119.854C121.623 326.658 123.045 325.23 123.045 323.475V212.537C123.045 210.773 121.613 209.354 119.854 209.354H-21.0002V326.658Z" fill="#DADADA" stroke="#263238" stroke-miterlimit="10" stroke-linecap="round" stroke-linejoin="round"/>
<path d="M156.656 224.196H125.169" stroke="#263238" stroke-miterlimit="10" stroke-linecap="round" stroke-linejoin="round"/>
<path d="M125.59 236.526H157.601" stroke="#263238" stroke-miterlimit="10" stroke-linecap="round" stroke-linejoin="round"/>
<path d="M158.724 258.928H136.828" stroke="#263238" stroke-miterlimit="10" stroke-linecap="round" stroke-linejoin="round"/>
<path d="M132.898 258.928H125.59" stroke="#263238" stroke-miterlimit="10" stroke-linecap="round" stroke-linejoin="round"/>
</svg>
