<svg width="816" height="499" viewBox="0 0 816 499" fill="none" xmlns="http://www.w3.org/2000/svg">
<path d="M797.992 320.245L674.069 362.93L625.624 379.614L584.523 393.773L579.956 395.333L545.854 407.083C541.678 410.87 536.514 413.188 531.076 413.784L525.522 415.345L524.971 415.505L444.169 438.133H87.7292L86.7653 437.33L-27.0832 341.174C-36.607 330.871 -38.3281 314.875 -31.214 302.85C3.78278 243.619 104.275 73.5236 139.685 14.1323C146.868 2.06127 161.004 -2.62026 173.466 2.91038L304.755 61.269L321.141 68.5437L325.822 70.632L378.283 93.9479L385.236 97.046L417.594 111.435L431.937 117.815L455.666 128.371L469.642 134.59L472.189 135.715C472.281 135.76 472.396 135.806 472.487 135.852C472.579 135.898 472.648 135.921 472.74 135.944C476.435 137.482 480.359 138.193 484.283 137.987L489.584 137.734H489.607L527.679 135.875L547.736 134.888L703.856 127.269C714.505 126.719 724.648 132.777 730.041 142.921L803.982 281.691C810.889 294.612 808.365 310.882 797.992 320.245Z" fill="#F3F5F4"/>
<path d="M46.4902 423.928L-14.3469 381.908L-14.4157 381.84C-19.7398 377.089 -23.4805 370.526 -24.9721 363.32C-26.4638 356.137 -25.6376 348.633 -22.6314 342.184C3.1171 287.016 89.4272 102.095 119.513 38.2744C125.824 24.8723 140.35 18.4467 154.028 22.9905L290.366 68.3602L312.259 75.6349L422.436 112.307L464.317 126.237C464.386 126.26 464.455 126.283 464.524 126.306L464.57 126.329C464.616 126.352 464.685 126.375 464.731 126.375L464.776 126.397C468.379 127.522 472.074 127.797 475.746 127.247L538.602 118.021L693.254 95.3019C698.739 94.4758 704.361 95.3249 709.547 97.7804C714.688 100.213 719.14 104.114 722.422 109.048L809.466 239.994C818.003 252.845 817.016 270.079 807.079 280.98L806.85 281.232L564.328 392.098C560.358 396.366 555.309 399.235 549.755 400.428L544.5 402.471L543.33 399.441L548.838 397.307L548.975 397.284C554.024 396.228 558.591 393.589 562.171 389.688L562.4 389.436L562.699 389.298L804.831 278.547C813.574 268.748 814.377 253.35 806.712 241.807L719.668 110.861C716.707 106.409 712.714 102.921 708.102 100.741C703.512 98.5836 698.532 97.8263 693.69 98.5377L481.414 129.725H481.391L476.182 130.482C472.051 131.102 467.874 130.781 463.79 129.518C463.698 129.496 463.606 129.473 463.514 129.427C463.422 129.404 463.354 129.381 463.262 129.358L463.193 129.335L365.661 96.8625L311.204 78.733L289.311 71.4582L152.972 26.0886C147.097 24.138 140.809 24.4134 135.279 26.8689C129.725 29.3244 125.158 33.8912 122.427 39.6743C92.3417 103.495 6.03158 288.415 -19.6939 343.561C-22.4019 349.367 -23.1592 356.16 -21.8052 362.655C-20.4742 369.126 -17.1007 375.047 -12.3274 379.338L48.349 421.243L46.4902 423.928Z" fill="#E0D3D3"/>
<path d="M334.803 498.617C437.971 498.617 521.605 487.038 521.605 472.754C521.605 458.47 437.971 446.891 334.803 446.891C231.634 446.891 148 458.47 148 472.754C148 487.038 231.634 498.617 334.803 498.617Z" fill="#E0D3D3"/>
<path d="M319.725 493.293C395.593 493.293 457.096 485.731 457.096 476.403C457.096 467.075 395.593 459.513 319.725 459.513C243.857 459.513 182.354 467.075 182.354 476.403C182.354 485.731 243.857 493.293 319.725 493.293Z" fill="#CEB6B6"/>
<path d="M379.798 463.858C560.038 463.858 706.151 452.279 706.151 437.995C706.151 423.711 560.038 412.132 379.798 412.132C199.557 412.132 53.4438 423.711 53.4438 437.995C53.4438 452.279 199.557 463.858 379.798 463.858Z" fill="#E0D3D3"/>
<path d="M584.5 190.057V438.156H356.183V190.057L431.937 117.815L470.33 81.2114L527.679 135.875L584.5 190.057Z" fill="#E0D3D3"/>
<g opacity="0.21">
<path d="M478.454 212.983L457.41 438.156H356.183V313.475L379.797 281.967L478.454 212.983Z" fill="#9B7C7C"/>
</g>
<path d="M584.5 190.057H605.75L470.353 61.292L334.933 190.057H356.183L470.353 81.2115L584.5 190.057Z" fill="#420B0B"/>
<g opacity="0.76">
<path d="M471.065 166.03C481.3 166.03 489.584 157.723 489.584 147.51V138.675C489.584 128.44 481.277 120.156 471.065 120.156C460.829 120.156 452.545 128.463 452.545 138.675V147.51C452.545 157.746 460.829 166.03 471.065 166.03Z" fill="white"/>
</g>
<path d="M472.487 120.156H469.642V166.053H472.487V120.156Z" fill="#420B0B"/>
<path d="M489.607 135.967H452.545V138.813H489.607V135.967Z" fill="#420B0B"/>
<path d="M356.16 190.057H86.7651V438.156H356.16V190.057Z" fill="#B59A9A"/>
<path d="M356.183 190.057V197.515L86.7651 225.903V190.057H356.183Z" fill="#C42128"/>
<path d="M525.522 291.536H401.071V438.156H525.522V291.536Z" fill="#B59A9A"/>
<path d="M674.046 293.969V438.156H524.971V293.969L599.509 222.323L674.046 293.969Z" fill="#E0D3D3"/>
<path d="M674.046 297.067H687.93L599.508 212.983L511.087 297.067H524.971L599.508 225.995L674.046 297.067Z" fill="#420B0B"/>
<path d="M470.353 61.292H189.553L69.8979 190.057L334.956 190.034L470.353 61.292Z" fill="#CEB6B6"/>
<path d="M511.087 297.067H395.035L478.454 212.983H599.508L511.087 297.067Z" fill="#CEB6B6"/>
<g opacity="0.76">
<path d="M511.087 321.186H414.129V402.425H511.087V321.186Z" fill="white"/>
</g>
<path d="M625.601 321.186H579.956V438.156H625.601V321.186Z" fill="#9B7C7C"/>
<g opacity="0.76">
<path d="M306.706 266.086C318.616 266.086 328.277 256.425 328.277 244.514V234.233C328.277 222.323 318.616 212.662 306.706 212.662C294.795 212.662 285.134 222.323 285.134 234.233V244.514C285.134 256.425 294.795 266.086 306.706 266.086Z" fill="white"/>
</g>
<g opacity="0.76">
<path d="M223.563 266.086C235.473 266.086 245.134 256.425 245.134 244.514V234.233C245.134 222.323 235.473 212.662 223.563 212.662C211.652 212.662 201.991 222.323 201.991 234.233V244.514C201.991 256.425 211.652 266.086 223.563 266.086Z" fill="white"/>
</g>
<g opacity="0.76">
<path d="M140.419 266.086C152.33 266.086 161.991 256.425 161.991 244.514V234.233C161.991 222.323 152.33 212.662 140.419 212.662C128.509 212.662 118.848 222.323 118.848 234.233V244.514C118.848 256.425 128.509 266.086 140.419 266.086Z" fill="white"/>
</g>
<path d="M308.358 212.639H305.054V266.086H308.358V212.639Z" fill="#420B0B"/>
<path d="M328.278 231.066H285.134V234.371H328.278V231.066Z" fill="#420B0B"/>
<path d="M225.215 212.639H221.91V266.086H225.215V212.639Z" fill="#420B0B"/>
<path d="M245.134 231.066H201.991V234.371H245.134V231.066Z" fill="#420B0B"/>
<path d="M140.419 266.086C141.337 266.086 142.072 265.352 142.072 264.434V214.314C142.072 213.396 141.337 212.662 140.419 212.662C139.501 212.662 138.767 213.396 138.767 214.314V264.434C138.767 265.329 139.501 266.086 140.419 266.086Z" fill="#420B0B"/>
<path d="M118.848 232.719C118.848 233.637 119.582 234.371 120.5 234.371H160.339C161.257 234.371 161.991 233.637 161.991 232.719C161.991 231.801 161.257 231.066 160.339 231.066H120.5C119.582 231.066 118.848 231.801 118.848 232.719Z" fill="#420B0B"/>
<path d="M500.232 321.186H497.271V402.425H500.232V321.186Z" fill="#420B0B"/>
<path d="M464.386 321.186H461.426V402.425H464.386V321.186Z" fill="#420B0B"/>
<path d="M511.201 369.057H414.083V372.018H511.201V369.057Z" fill="#420B0B"/>
<path d="M428.54 320.727H425.58V402.425H428.54V320.727Z" fill="#420B0B"/>
<path d="M420.807 61.292L292.822 190.034H285.134L409.975 61.292H420.807Z" fill="#420B0B"/>
<path d="M334.956 61.292L209.334 190.057H201.991L328.3 61.292H334.956Z" fill="#420B0B"/>
<path d="M252.684 61.292L136.724 190.057H126.535L245.134 61.292H252.684Z" fill="#420B0B"/>
<path d="M414.794 297.067L493.761 212.983H499.842L421.518 297.067H414.794Z" fill="#420B0B"/>
<path d="M471.11 297.067L545.785 212.983H551.454L476.916 297.067H471.11Z" fill="#420B0B"/>
<path d="M324.652 305.696H118.848V438.156H324.652V305.696Z" fill="#9B7C7C"/>
<g opacity="0.67">
<path d="M356.183 190.057V197.515L86.7651 225.903V190.057H356.183Z" fill="#9B7C7C"/>
</g>
<g opacity="0.21">
<path d="M674.069 418.581H524.971V438.156H674.069V418.581Z" fill="#9B7C7C"/>
</g>
<path d="M698.922 81.4409C699.129 103.701 684.029 126.879 672.439 144.504C667.276 152.352 661.654 159.903 655.457 166.994C655.434 167.017 655.411 167.04 655.411 167.063C655.113 167.43 654.7 167.613 654.264 167.613C653.828 167.613 653.415 167.43 653.117 167.063C653.094 167.04 653.094 167.017 653.071 166.994C642.124 154.464 632.532 140.396 624.89 125.64C615.205 106.96 603.593 85.8471 612.13 64.5736C618.969 47.5457 635.905 36.0942 654.264 36.0942C677.396 36.0942 695.732 53.5123 698.555 76.2086C698.784 77.9298 698.899 79.6739 698.922 81.4409Z" fill="#C42128"/>
<path d="M671.119 82.5722C672.648 73.1516 666.251 64.2753 656.83 62.7464C647.409 61.2175 638.533 67.615 637.004 77.0355C635.475 86.4561 641.873 95.3324 651.293 96.8613C660.714 98.3902 669.59 91.9928 671.119 82.5722Z" fill="white"/>
<path d="M663.715 191.38C664.973 186.052 661.673 180.712 656.345 179.454C651.016 178.196 645.677 181.495 644.418 186.824C643.16 192.152 646.46 197.492 651.788 198.75C657.117 200.008 662.456 196.709 663.715 191.38Z" fill="#C42128"/>
<path d="M481.949 348.464L423.545 366.57L411.703 370.242C411.703 370.242 411.703 372.078 411.749 375.291C411.864 383.024 412.208 398.698 413.241 415.497C414.733 439.891 417.647 466.672 423.338 475.164C423.338 475.164 412.69 481.084 404.13 476.081C403.281 475.6 402.753 474.705 402.708 473.741C402.455 467.269 401.354 439.96 399.678 415.382C398.829 403.127 397.865 391.561 396.764 383.575C395.915 377.402 394.997 373.363 394.033 372.789L358.095 383.919L356.741 384.332C353.873 385.227 350.82 383.621 349.948 380.73L340.953 351.401L331.773 321.476C330.809 318.355 332.576 315.073 335.697 314.155L464.646 276.221C467.606 275.349 470.682 277.139 471.37 280.145L471.944 282.578L480.664 319.594L485.851 341.625C486.539 344.585 484.841 347.569 481.949 348.464Z" fill="#C42128"/>
<g opacity="0.46">
<path d="M481.95 348.464L423.545 366.57L411.704 370.242C411.704 370.242 411.704 372.078 411.749 375.291C406.54 378.159 400.941 381.212 396.764 383.575C395.915 377.402 394.997 373.363 394.033 372.789L358.095 383.919L356.741 384.333C353.873 385.228 350.821 383.621 349.949 380.73L340.953 351.401C343.523 351.424 346.116 351.401 348.709 351.355C352.083 351.309 355.456 351.172 358.83 351.011C360.092 350.942 361.331 350.873 362.593 350.804C367.986 350.46 373.379 350.001 378.772 349.382C380.195 349.221 381.618 349.06 383.018 348.877C384.532 348.67 386.047 348.487 387.562 348.257C388.961 348.051 390.361 347.844 391.761 347.638C393.62 347.339 395.479 347.041 397.338 346.72C398.416 346.536 399.495 346.33 400.573 346.146C407.022 344.953 413.425 343.553 419.759 341.969C423.453 341.051 427.102 340.042 430.751 338.986C432.793 338.389 434.836 337.77 436.878 337.127C439.403 336.347 441.904 335.521 444.405 334.672C444.497 334.649 444.589 334.626 444.658 334.58C445.415 334.327 446.172 334.075 446.907 333.799C448.307 333.318 449.707 332.813 451.084 332.285C452.529 331.757 453.975 331.206 455.398 330.656C456.454 330.265 457.486 329.852 458.519 329.439C459.506 329.049 460.47 328.659 461.456 328.246C462.948 327.626 464.463 327.007 465.931 326.364C466.023 326.318 466.138 326.272 466.23 326.226C471.095 324.138 475.891 321.912 480.641 319.571L485.828 341.602C486.539 344.585 484.841 347.569 481.95 348.464Z" fill="#420B0B"/>
</g>
<path d="M348.686 351.378L358.095 383.942L356.741 384.355C353.873 385.25 350.82 383.644 349.948 380.752L340.953 351.424L331.773 321.499C330.809 318.378 332.576 315.096 335.697 314.178L464.646 276.244C467.606 275.372 470.682 277.162 471.37 280.168L471.944 282.601C442.776 290.656 369.547 310.92 346.437 317.896C342.651 319.043 340.494 323.014 341.595 326.823L348.686 351.378Z" fill="#420B0B"/>
<path d="M359.97 353.548L359.814 352.938C360.861 352.671 361.422 352.321 361.497 351.889L357.766 337.268C357.492 336.925 356.832 336.887 355.786 337.154L355.63 336.543L360.891 335.201L370.533 347.137L373.275 332.04L378.594 330.683L378.75 331.293C377.703 331.56 377.142 331.91 377.067 332.342L380.798 346.963C381.072 347.306 381.732 347.344 382.778 347.077L382.934 347.688L375.58 349.565L375.424 348.954C376.47 348.687 377.031 348.338 377.107 347.905L373.776 334.854L370.9 350.759L369.446 351.13L359.11 338.411L362.485 351.637C362.759 351.98 363.419 352.018 364.465 351.751L364.621 352.361L359.97 353.548ZM384.545 347.277L384.389 346.666C385.436 346.399 385.997 346.05 386.072 345.617L383.557 335.763C382.491 335.953 381.871 336.07 381.696 336.114L381.526 335.446C381.894 335.352 382.733 334.921 384.044 334.153C385.35 333.365 386.226 332.915 386.671 332.801L386.983 334.022C387.783 332.951 388.638 332.299 389.549 332.067C391.952 331.453 393.302 331.728 393.599 332.891C393.717 333.356 393.666 333.761 393.445 334.107C393.243 334.447 392.938 334.67 392.531 334.773C392.085 334.887 391.717 334.857 391.425 334.684C391.133 334.511 390.921 334.287 390.788 334.011C390.656 333.735 390.473 333.503 390.239 333.315C390.025 333.122 389.763 333.065 389.453 333.144C388.716 333.332 387.977 333.954 387.235 335.01L389.706 344.69C389.979 345.033 390.639 345.071 391.685 344.804L391.841 345.415L384.545 347.277ZM396.093 342.719C395.95 342.157 396.03 341.662 396.333 341.234C396.651 340.781 397.072 340.488 397.595 340.354C398.06 340.236 398.558 340.284 399.087 340.5C399.612 340.696 399.944 341.066 400.082 341.608C400.226 342.17 400.139 342.678 399.821 343.13C399.503 343.583 399.082 343.876 398.559 344.01C398.094 344.128 397.596 344.08 397.067 343.864C396.556 343.644 396.232 343.262 396.093 342.719ZM416.982 332.249C417.555 334.497 417.525 336.28 416.891 337.597C416.277 338.91 415.02 339.809 413.121 340.293C411.745 340.644 410.6 340.648 409.687 340.303C408.788 339.934 408.256 339.429 408.093 338.79C407.979 338.344 408.014 337.912 408.196 337.494C408.393 337.052 408.675 336.784 409.043 336.69C409.373 336.606 409.727 336.66 410.106 336.852C410.5 337.02 410.741 337.278 410.831 337.627C410.999 338.286 410.86 338.755 410.415 339.033C410.44 339.048 410.493 339.096 410.576 339.178C410.673 339.236 410.759 339.286 410.832 339.329C410.919 339.348 411.04 339.379 411.196 339.422C411.351 339.465 411.541 339.479 411.764 339.463C412.006 339.443 412.273 339.395 412.563 339.321C413.416 339.103 413.857 338.444 413.885 337.343C413.909 336.222 413.621 334.489 413.023 332.144L410.871 323.715C410.598 323.372 409.938 323.334 408.892 323.601L408.736 322.99L416.09 321.113L416.246 321.724C415.2 321.991 414.639 322.34 414.563 322.772L416.982 332.249ZM423.421 329.677C424.005 331.963 424.733 333.563 425.605 334.475C426.498 335.383 427.573 335.676 428.833 335.355C429.705 335.132 430.257 334.506 430.49 333.476C430.718 332.428 430.639 331.147 430.253 329.636C429.65 327.272 428.938 325.657 428.119 324.793C427.319 323.924 426.212 323.67 424.798 324.031C423.964 324.243 423.439 324.894 423.221 325.981C423.003 327.069 423.07 328.301 423.421 329.677ZM428.678 336.323C426.488 336.882 424.581 336.687 422.956 335.74C421.35 334.787 420.286 333.284 419.761 331.23C419.292 329.389 419.482 327.709 420.333 326.192C421.199 324.65 422.775 323.587 425.062 323.004C427.368 322.415 429.277 322.578 430.79 323.492C432.323 324.401 433.356 325.902 433.89 327.995C434.365 329.856 434.182 331.564 433.341 333.12C432.499 334.677 430.945 335.744 428.678 336.323ZM436.685 333.97L436.529 333.359C437.576 333.092 438.137 332.743 438.212 332.311L434.362 317.224C433.296 317.414 432.675 317.531 432.501 317.575L432.33 316.907C432.699 316.813 433.538 316.382 434.849 315.614C436.155 314.826 437.03 314.376 437.476 314.262L439.101 320.628C440.071 319.576 441.127 318.903 442.271 318.612C444.189 318.122 445.722 318.061 446.868 318.429C448.015 318.797 448.771 319.698 449.137 321.132L451.148 329.009C451.421 329.352 452.081 329.39 453.127 329.123L453.283 329.734L445.987 331.596L445.831 330.985C446.878 330.718 447.439 330.369 447.514 329.937L445.682 322.757C445.34 321.42 444.895 320.522 444.344 320.064C443.808 319.582 443.143 319.442 442.348 319.644C441.186 319.941 440.18 320.569 439.331 321.529L441.846 331.383C442.119 331.726 442.779 331.764 443.825 331.497L443.981 332.108L436.685 333.97ZM454.292 329.476L454.136 328.866C455.182 328.599 455.743 328.249 455.819 327.817L453.304 317.963C452.238 318.153 451.617 318.27 451.443 318.314L451.272 317.646C451.641 317.552 452.48 317.121 453.791 316.353C455.097 315.565 455.973 315.115 456.418 315.001L456.73 316.222C457.491 315.161 458.453 314.482 459.616 314.185C461.476 313.71 463.009 313.691 464.214 314.126C465.414 314.542 466.19 315.438 466.541 316.814L468.522 324.575C468.795 324.918 469.455 324.956 470.501 324.689L470.657 325.3L463.361 327.162L463.205 326.551C464.252 326.284 464.813 325.935 464.888 325.503L462.856 317.538C462.633 316.666 462.249 316.01 461.704 315.572C461.177 315.128 460.507 315.01 459.694 315.218C458.492 315.524 457.583 316.169 456.967 317.152L459.452 326.89C459.726 327.233 460.386 327.271 461.432 327.004L461.588 327.614L454.292 329.476Z" fill="white"/>
<path d="M411.703 370.242C411.703 370.242 411.703 372.078 411.749 375.291C406.54 378.159 400.94 381.212 396.764 383.575C395.914 377.402 394.997 373.363 394.033 372.789C394.033 372.789 420.837 366.708 423.522 366.57L411.703 370.242Z" fill="black"/>
</svg>
