<svg width="48" height="48" viewBox="0 0 48 48" fill="none" xmlns="http://www.w3.org/2000/svg">
<path d="M6 26C6 30.7739 7.89642 35.3523 11.2721 38.7279C14.6477 42.1036 19.2261 44 24 44C24 34 15.94 26 6 26ZM24 11C25.3261 11 26.5979 11.5268 27.5355 12.4645C28.4732 13.4021 29 14.6739 29 16C29 17.3261 28.4732 18.5979 27.5355 19.5355C26.5979 20.4732 25.3261 21 24 21C22.6739 21 21.4021 20.4732 20.4645 19.5355C19.5268 18.5979 19 17.3261 19 16C19 14.6739 19.5268 13.4021 20.4645 12.4645C21.4021 11.5268 22.6739 11 24 11ZM11.2 20.5C11.2 21.8261 11.7268 23.0979 12.6645 24.0355C13.6021 24.9732 14.8739 25.5 16.2 25.5C17.26 25.5 18.24 25.16 19 24.62V25C19 26.3261 19.5268 27.5979 20.4645 28.5355C21.4021 29.4732 22.6739 30 24 30C25.3261 30 26.5979 29.4732 27.5355 28.5355C28.4732 27.5979 29 26.3261 29 25V24.62C29.76 25.16 30.74 25.5 31.8 25.5C33.1261 25.5 34.3979 24.9732 35.3355 24.0355C36.2732 23.0979 36.8 21.8261 36.8 20.5C36.8 18.5 35.62 16.8 33.94 16C35.62 15.2 36.8 13.48 36.8 11.5C36.8 10.1739 36.2732 8.90215 35.3355 7.96447C34.3979 7.02678 33.1261 6.5 31.8 6.5C30.74 6.5 29.76 6.82 29 7.38V7C29 5.67392 28.4732 4.40215 27.5355 3.46447C26.5979 2.52678 25.3261 2 24 2C22.6739 2 21.4021 2.52678 20.4645 3.46447C19.5268 4.40215 19 5.67392 19 7V7.38C18.24 6.82 17.26 6.5 16.2 6.5C14.8739 6.5 13.6021 7.02678 12.6645 7.96447C11.7268 8.90215 11.2 10.1739 11.2 11.5C11.2 13.48 12.38 15.2 14.06 16C12.38 16.8 11.2 18.5 11.2 20.5ZM24 44C28.7739 44 33.3523 42.1036 36.7279 38.7279C40.1036 35.3523 42 30.7739 42 26C32 26 24 34 24 44Z" fill="white"/>
</svg>
