<svg width="48" height="48" viewBox="0 0 48 48" fill="none" xmlns="http://www.w3.org/2000/svg">
<path d="M23.9999 4C23.1205 4 22.2519 4.19331 21.4555 4.56625C20.659 4.93919 19.9543 5.48264 19.3912 6.15813C18.8282 6.83361 18.4204 7.62462 18.1969 8.47515C17.9734 9.32569 17.9396 10.215 18.0979 11.08C17.2049 11.2436 16.3733 11.6472 15.6923 12.2476C15.0113 12.8479 14.5066 13.6224 14.2324 14.4878C13.9582 15.3533 13.9248 16.2771 14.1357 17.1601C14.3467 18.0431 14.7941 18.852 15.4299 19.5C14.7407 20.2031 14.2744 21.0941 14.0896 22.0612C13.9047 23.0283 14.0095 24.0284 14.3907 24.9362C14.772 25.8439 15.4128 26.6189 16.2328 27.164C17.0527 27.709 18.0153 27.9999 18.9999 28H22.4999V37.38L15.5599 30.44C15.2756 30.175 14.8995 30.0308 14.5109 30.0376C14.1223 30.0445 13.7515 30.2019 13.4767 30.4768C13.2019 30.7516 13.0444 31.1224 13.0376 31.511C13.0307 31.8996 13.175 32.2757 13.4399 32.56L22.4999 41.62V44.5C22.4999 44.8978 22.658 45.2794 22.9393 45.5607C23.2206 45.842 23.6021 46 23.9999 46C24.3978 46 24.7793 45.842 25.0606 45.5607C25.3419 45.2794 25.4999 44.8978 25.4999 44.5V41.62L34.5599 32.56C34.7073 32.4227 34.8255 32.2571 34.9075 32.0731C34.9895 31.8891 35.0336 31.6905 35.0371 31.489C35.0407 31.2876 35.0036 31.0876 34.9282 30.9008C34.8527 30.714 34.7404 30.5444 34.598 30.4019C34.4556 30.2595 34.2859 30.1472 34.0991 30.0718C33.9124 29.9963 33.7123 29.9593 33.5109 29.9628C33.3095 29.9664 33.1109 30.0105 32.9269 30.0924C32.7429 30.1744 32.5773 30.2926 32.4399 30.44L25.4999 37.38V28H28.9999C29.9845 27.9999 30.9472 27.709 31.7671 27.164C32.5871 26.6189 33.2279 25.8439 33.6091 24.9362C33.9904 24.0284 34.0952 23.0283 33.9103 22.0612C33.7254 21.0941 33.2591 20.2031 32.5699 19.5C33.2058 18.852 33.6532 18.0431 33.8641 17.1601C34.0751 16.2771 34.0417 15.3533 33.7675 14.4878C33.4932 13.6224 32.9885 12.8479 32.3075 12.2476C31.6265 11.6472 30.7949 11.2436 29.9019 11.08C30.0602 10.215 30.0264 9.32569 29.8029 8.47515C29.5794 7.62462 29.1717 6.83361 28.6086 6.15813C28.0455 5.48264 27.3408 4.93919 26.5444 4.56625C25.748 4.19331 24.8793 4 23.9999 4Z" fill="white"/>
</svg>
