<svg width="48" height="48" viewBox="0 0 48 48" fill="none" xmlns="http://www.w3.org/2000/svg">
<path d="M17.1 44C16.1667 44 15.35 43.7167 14.65 43.15C13.95 42.5833 13.4833 41.85 13.25 40.95L11 32H37L34.75 40.95C34.5167 41.85 34.05 42.5833 33.35 43.15C32.65 43.7167 31.8333 44 30.9 44H17.1ZM24 16C24 12.6667 25.1667 9.83333 27.5 7.5C29.8333 5.16667 32.6667 4 36 4C36 7 35.05 9.6 33.15 11.8C31.25 14 28.8667 15.3333 26 15.8V20H42V26C42 27.1 41.608 28.042 40.824 28.826C40.04 29.61 39.0987 30.0013 38 30H10C8.9 30 7.958 29.608 7.174 28.824C6.39 28.04 5.99867 27.0987 6 26V20H22V15.8C19.1333 15.3333 16.75 14 14.85 11.8C12.95 9.6 12 7 12 4C15.3333 4 18.1667 5.16667 20.5 7.5C22.8333 9.83333 24 12.6667 24 16Z" fill="white"/>
</svg>
