<svg width="128" height="95" viewBox="0 0 128 95" fill="none" xmlns="http://www.w3.org/2000/svg">
<path d="M77.5642 27.1877C76.7814 27.1877 76.1467 27.8224 76.1467 28.6052C76.1467 29.3881 76.7814 30.0228 77.5642 30.0228C78.3471 30.0228 78.9818 29.3881 78.9818 28.6052C78.9606 27.8224 78.3471 27.1877 77.5642 27.1877ZM52.577 30.0228C53.3598 30.0228 53.9945 29.3881 53.9945 28.6052C53.9945 27.8224 53.3598 27.1877 52.577 27.1877C51.7941 27.1877 51.1594 27.8224 51.1594 28.6052C51.1805 29.3881 51.7941 30.0228 52.577 30.0228ZM97.3679 0H30.4248L0 30.4037L56.2584 86.662L59.2628 62.4153L62.4153 37.0472L58.6704 33.3023L65.1446 26.828L71.6189 33.3023L67.5989 37.3222L70.7091 62.3941L73.4808 84.6944L127.772 30.4037L97.3679 0ZM38.2532 2.2004H91.7187H91.7399C92.5439 2.22156 92.8401 3.27945 92.1842 3.72376L65.187 21.9617C65.1235 22.004 65.06 22.0252 64.9965 22.0675C64.9331 22.0464 64.8696 22.004 64.8061 21.9617L37.8088 3.74492C37.1318 3.27945 37.428 2.22156 38.2532 2.2004ZM98.7008 11.7002L77.9027 32.4983L77.5854 32.7098L64.9965 24.1833L52.4077 32.7098L52.0903 32.4983L31.2923 11.7002C30.9961 11.404 30.8268 11.002 30.8268 10.5789V4.86628C30.8268 3.59681 32.2232 2.83514 33.2811 3.53334L64.9965 24.2044L96.712 3.53334C97.7699 2.83514 99.1663 3.59681 99.1663 4.86628V10.5789C99.1663 11.002 98.997 11.404 98.7008 11.7002Z" fill="#414042"/>
<path d="M58.6703 33.3024L65.1445 26.8281L71.6188 33.3024L67.5988 37.3224L73.4807 84.6945L63.8751 94.3001L56.2583 86.6622L62.4152 37.0473L58.6703 33.3024Z" fill="#C42128"/>
</svg>
